<ttFont>
          <CharString index="0">
            rmoveto
            -112 hlineto
            -103 -444 rlineto
            -6 -30 -6 -41 -31 vvcurveto
            -104 81 -46 122 157 77 73 160 37 vhcurveto
            107 463 rlineto
            -112 hlineto
            -107 -463 rlineto
            -91 -21 -32 -45 -96 hhcurveto
            -63 -39 16 54 23 4 24 5 22 hvcurveto
            return
          </CharString>
          <CharString index="1">
            213 -232 rmoveto
            154 91 83 109 85 -64 27 -82 11 hvcurveto
            -68 10 -25 5 20 vvcurveto
            20 22 29 0 vhcurveto
            0 18 -5 20 130 80 94 96 26 -4 20 -5 13 vhcurveto
            71 hlineto
            21 89 -147 -6 rlineto
            0 -60 17 -50 -128 -77 -93 -105 -65 26 -35 43 -23 vhcurveto
            0 -58 -52 -44 vvcurveto
            -22 5 -14 13 -13 vhcurveto
            -56 -28 -70 -42 -73 vvcurveto
            -93 80 -41 120 vhcurveto
            61 230 rmoveto
            54 -8 27 -8 -34 vvcurveto
            -65 -72 -24 -70 -72 -28 31 37 35 43 35 32 16 vhcurveto
            16 -4 31 -5 39 -6 rrcurveto
            13 253 rmoveto
            -54 -22 26 41 51 37 53 62 56 23 -24 -44 -48 -36 -55 -66 hvcurveto
            return
          </CharString>
          <CharString index="2">
            -85 callsubr
            -103 callgsubr
            return
          </CharString>
          <CharString index="3">
            rmoveto
            -14 -76 rlineto
            0 50 6 39 23 10 -6 -17 -4 vhcurveto
            -16 -4 -15 -10 -16 hhcurveto
            -64 hlineto
            -18 -72 rlineto
            66 hlineto
            22 12 -6 -20 -5 hvcurveto
            -18 -5 -13 -9 -27 hhcurveto
            -37 -58 6 0 hvcurveto
            -25 -77 rlineto
            0 67 -8 49 70 51 31 68 17 vhcurveto
            11 47 -10 18 -23 10 15 8 27 23 10 41 rrcurveto
            60 14 -31 26 -76 hhcurveto
            -42 -66 -9 0 hvcurveto
            return
          </CharString>
          <CharString index="4">
            23 97 rlineto
            -282 hlineto
            46 199 rlineto
            225 hlineto
            23 98 rlineto
            -226 hlineto
            44 18 callgsubr
            281 -46 callgsubr
            -393 hlineto
            endchar
          </CharString>
          <CharString index="5">
            0 -79 26 -94 -110 -94 -69 -120 -70 52 -26 84 -22 vhcurveto
            54 -14 23 -8 -27 vvcurveto
            -46 -35 -27 -64 -64 -95 18 0 vhcurveto
            -20 -81 rlineto
            0 78 -29 89 126 95 60 126 76 -48 18 -86 25 vhcurveto
            -62 18 -18 9 27 vvcurveto
            38 30 32 54 vhcurveto
            return
          </CharString>
          <CharString index="6">
            rmoveto
            0 -59 11 -36 -98 -49 -59 -116 -28 vhcurveto
            -102 -26 25 -55 86 hhcurveto
            75 49 36 77 20 hvcurveto
            67 17 -24 37 -70 hhcurveto
            -15 -19 -4 -4 -16 hvcurveto
            29 8 16 17 33 hhcurveto
            30 58 -6 0 hvcurveto
            -128 -104 rmoveto
            20 7 -10 -23 -6 hvcurveto
            -21 -6 -12 -15 -21 hhcurveto
            -22 -4 23 34 8 hvcurveto
            0 17 12 19 vhcurveto
            endchar
          </CharString>
          <CharString index="7">
            rmoveto
            -34 -30 -5 -19 -26 hvcurveto
            -33 -24 -25 -47 -18 -72 rrcurveto
            -127 -31 34 -38 81 hhcurveto
            35 30 4 18 26 hvcurveto
            33 25 24 45 18 73 rrcurveto
            126 31 -36 41 -79 hhcurveto
            -19 -79 rmoveto
            24 6 -16 -72 -18 hvcurveto
            -74 -19 -13 -12 -23 hhcurveto
            -22 -9 12 74 18 hvcurveto
            73 19 14 15 23 hhcurveto
            endchar
          </CharString>
          <CharString index="8">
            rmoveto
            -56 -186 64 -8 rlineto
            0 22 8 17 16 8 -7 -21 -6 vhcurveto
            -20 -5 -16 -10 -21 hhcurveto
            -39 -52 10 0 hvcurveto
            -25 -72 rlineto
            0 60 -14 50 74 46 30 80 21 vhcurveto
            70 17 -31 29 -55 hhcurveto
            -23 -29 -10 0 hvcurveto
            15 45 rlineto
            128 hlineto
            19 76 rlineto
            endchar
          </CharString>
          <CharString index="9">
            rmoveto
            -291 -170 -124 -332 -79 hvcurveto
            -233 -55 83 -239 330 hhcurveto
            45 97 9 0 hvcurveto
            20 92 rlineto
            0 -99 -9 -38 -278 -50 182 198 47 vhcurveto
            241 58 123 123 240 hhcurveto
            293 16 -147 -178 -44 hvcurveto
            -170 -41 -35 -44 -48 hhcurveto
            -30 -18 7 30 2 hvcurveto
            3 40 63 272 10 40 rrcurveto
            16 -94 -87 13 -42 hhcurveto
            -142 -78 -109 -171 -33 hvcurveto
            -104 -20 8 -138 138 hhcurveto
            60 89 30 20 40 hvcurveto
            -35 16 36 -14 55 hhcurveto
            120 68 72 234 59 hvcurveto
            231 59 -67 197 -339 hhcurveto
            -169 -642 rmoveto
            -53 2 -8 67 17 79 rrcurveto
            106 23 38 83 81 hhcurveto
            29 47 -9 -6 24 hvcurveto
            -22 -93 -34 -151 -3 -34 rrcurveto
            -19 -34 -58 -25 -47 hhcurveto
            endchar
          </CharString>
          <CharString index="10">
            22 16 -3 -23 -6 hvcurveto
            -20 -5 -13 -9 -27 hhcurveto
            -20 -33 2 0 hvcurveto
            -17 -68 rlineto
            0 40 -9 42 64 41 33 64 15 vhcurveto
            return
          </CharString>
          <CharString index="11">
            rmoveto
            4 -500 rlineto
            76 hlineto
            -108 -215 rlineto
            15 callgsubr
            346 715 -63 callsubr
            -193 -410 rlineto
            -22 hlineto
            5 410 rlineto
            return
          </CharString>
          <CharString index="12">
            -9 -346 rlineto
            184 hlineto
            214 500 -63 callsubr
            -169 -407 rlineto
            -21 hlineto
            9 397 rlineto
            -124 hlineto
            -179 -397 rlineto
            -21 hlineto
            22 407 rlineto
            return
          </CharString>
          <CharString index="13">
            88 -36 18 -13 -47 vvcurveto
            -88 -51 -39 -88 -72 -115 19 0 vhcurveto
            -18 -81 rlineto
            0 103 -35 101 153 101 84 153 89 -31 34 -108 45 vhcurveto
            -86 34 -20 13 46 vvcurveto
            72 47 42 77 70 108 -18 0 vhcurveto
            return
          </CharString>
          <CharString index="14">
            rmoveto
            -59 -15 22 -45 63 hhcurveto
            61 51 42 67 11 hvcurveto
            56 11 -22 42 -60 hhcurveto
            -62 -47 -46 -57 -13 hvcurveto
            60 hmoveto
            20 6 18 15 22 hhcurveto
            19 14 -16 -20 -6 hvcurveto
            -21 -6 -18 -16 -21 hhcurveto
            -22 -11 19 19 5 hvcurveto
            return
          </CharString>
          <CharString index="15">
            -89 -13 45 -48 93 hhcurveto
            105 53 53 84 27 hvcurveto
            -98 hlineto
            -30 -10 -26 -21 -33 hhcurveto
            -33 -18 13 38 6 hvcurveto
            return
          </CharString>
          <CharString index="16">
            rmoveto
            0 -62 -41 -23 vhcurveto
            -27 -62 48 -55 hhcurveto
            -44 -67 -63 0 hvcurveto
            3 -76 rlineto
            0 62 43 23 vhcurveto
            35 64 -48 47 hhcurveto
            45 63 61 0 hvcurveto
            return
          </CharString>
          <CharString index="17">
            80 -11 97 599 -20 hstem
            334 685 -107 callsubr
            return
          </CharString>
          <CharString index="18">
            -106 -93 -52 -173 -165 vvcurveto
            -146 76 -61 138 vhcurveto
            return
          </CharString>
          <CharString index="19">
            106 hlineto
            134 575 rlineto
            15 hlineto
            72 -575 rlineto
            175 hlineto
            158 685 -80 callsubr
            -129 -568 rlineto
            -15 hlineto
            -66 568 rlineto
            -183 hlineto
            endchar
          </CharString>
          <CharString index="20">
            rmoveto
            249 80 -10 97 -248 -92 rlineto
            return
          </CharString>
          <CharString index="21">
            71 74 35 -74 4 callgsubr
            -86 165 rlineto
            -63 hlineto
            endchar
          </CharString>
          <CharString index="22">
            84 31 -35 -85 -124 -41 -161 -79 -71 hvcurveto
            return
          </CharString>
          <CharString index="23">
            rmoveto
            163 165 rlineto
            -106 hlineto
            -69 -76 -39 76 rlineto
            -99 hlineto
            83 -165 rlineto
            return
          </CharString>
          <CharString index="24">
            60 hmoveto
            -24 callgsubr
            78 334 rlineto
            0 100 49 55 16 vhcurveto
            31 112 rlineto
            -81 -13 -86 -71 0 vvcurveto
            17 73 6 callgsubr
            return
          </CharString>
          <CharString index="25">
            rmoveto
            49 -23 23 -39 20 vhcurveto
            69 24 32 31 19 81 23 123 rcurveline
            hintmask 11010000
            12 53 27 33 71 5 18 94 rcurveline
            -128 -5 -63 -39 -34 -111 -3 -9 -18 -105 -7 -29 -12 -51 -14 -25 -89 -23 -19 -80 rcurveline
            50 -23 19 -25 -35 -40 -44 -118 -48 vvcurveto
            -77 57 -42 95 -1 vhcurveto
            26 94 rlineto
            -48 -23 20 37 hvcurveto
            43 46 118 38 vvcurveto
            endchar
          </CharString>
          <CharString index="26">
            30 55 -46 44 hhcurveto
            44 62 59 0 hvcurveto
            return
          </CharString>
          <CharString index="27">
            rlineto
            -108 hlineto
            return
          </CharString>
          <CharString index="28">
            rmoveto
            25 -62 65 38 -53 -215 rlineto
            88 hlineto
            77 312 rlineto
            -81 hlineto
            return
          </CharString>
          <CharString index="29">
            hlineto
            -75 callsubr
            return
          </CharString>
          <CharString index="30">
            -86 -30 34 86 113 43 172 83 75 hvcurveto
            return
          </CharString>
          <CharString index="31">
            23 26 32 10 35 hhcurveto
            -105 callsubr
            endchar
          </CharString>
          <CharString index="32">
            115 500 rlineto
            return
          </CharString>
          <CharString index="33">
            -63 26 -88 -129 rlineto
            16 -33 -41 8 -47 hhcurveto
            -74 -64 -24 -45 -50 hvcurveto
            -106 -93 -52 -173 -165 vvcurveto
            -65 15 -48 29 -34 vhcurveto
            -90 -133 rlineto
            165 244 rmoveto
            -3 13 -1 15 18 vvcurveto
            7 callgsubr
            31 24 -5 -11 18 hvcurveto
            return
          </CharString>
          <CharString index="34">
            rmoveto
            113 hlineto
            -3 -16 -149 -200 100 -18 156 230 23 91 rlineto
            -219 hlineto
            endchar
          </CharString>
          <CharString index="35">
            rmoveto
            99 hlineto
            -102 -226 rlineto
            -90 hlineto
            return
          </CharString>
          <CharString index="36">
            -30 callgsubr
            -22 callgsubr
            vhcurveto
            hintmask 10011000
            -23 callsubr
            -36 callgsubr
            hvcurveto
            -51 callsubr
          </CharString>
          <CharString index="37">
            -2 callgsubr
            666 14 17 10 20 6 24 rlinecurve
            78 18 -45 32 -66 hhcurveto
            -70 -57 -35 -75 -19 hvcurveto
            -7 -25 1 -20 6 -17 rrcurveto
            75 -77 rmoveto
            25 hlineto
            -5 -347 rlineto
            -184 hlineto
            return
          </CharString>
          <CharString index="38">
            941 rmoveto
            -53 -95 210 -81 49 84 rlineto
            return
          </CharString>
          <CharString index="39">
            rmoveto
            -29 -8 callgsubr
            176 hlineto
            220 527 -27 -527 rlineto
            171 hlineto
            return
          </CharString>
          <CharString index="40">
            rlineto
            -111 hlineto
            return
          </CharString>
          <CharString index="41">
            -67 callsubr
            -159 -8 callgsubr
            return
          </CharString>
          <CharString index="42">
            -52 -88 211 -83 46 79 rlineto
            return
          </CharString>
          <CharString index="43">
            rmoveto
            294 hlineto
            21 88 rlineto
            -295 hlineto
            endchar
          </CharString>
          <CharString index="44">
            rlineto
            -110 hlineto
            return
          </CharString>
          <CharString index="45">
            23 26 32 10 35 hhcurveto
            return
          </CharString>
          <CharString index="46">
            685 -67 callsubr
            return
          </CharString>
          <CharString index="47">
            rmoveto
            89 13 callsubr
            -89 hlineto
            162 -117 rmoveto
            88 21 callsubr
            endchar
          </CharString>
          <CharString index="48">
            50 217 51 4 64 -221 rlineto
            -25 callgsubr
            -79 263 191 236 rlineto
            -121 hlineto
            -151 -188 -47 -5 93 402 28 callgsubr
          </CharString>
          <CharString index="49">
            rmoveto
            -20 -500 rlineto
            181 hlineto
            152 346 return
          </CharString>
          <CharString index="50">
            -17 callsubr
            51 10 0 vhcurveto
            return
          </CharString>
          <CharString index="51">
            rmoveto
            0 -59 -40 -22 vhcurveto
            return
          </CharString>
          <CharString index="52">
            -21 143 98 347 97 -76 -21 97 -20 hstemhm
            18 112 return
          </CharString>
          <CharString index="53">
            -68 callgsubr
            -9 callsubr
            -199 hlineto
            return
          </CharString>
          <CharString index="54">
            -23 -273 rmoveto
            -31 -24 5 9 -18 hvcurveto
            155 227 132 18 callgsubr
            3 -12 1 -14 -16 vvcurveto
            -124 -41 -161 -79 -71 vhcurveto
            -24 -27 -34 -13 -37 hhcurveto
            return
          </CharString>
          <CharString index="55">
            168 hmoveto
            77 334 rlineto
            0 73 83 47 42 11 -24 -41 -28 -12 -55 -6 -28 vhcurveto
            -56 -241 -46 callsubr
            57 249 rlineto
            8 32 13 59 37 vvcurveto
            return
          </CharString>
          <CharString index="56">
            -54 callgsubr
            -16 callsubr
            -7 -32 -13 -59 -37 vvcurveto
            -76 callgsubr
            -11 -66 rlineto
            104 -78 callsubr
            endchar
          </CharString>
          <CharString index="57">
            68 16 -44 18 -58 hhcurveto
            -6 hlineto
            return
          </CharString>
          <CharString index="58">
            rmoveto
            hintmask 01100000
            0 -232 -304 -320 vvcurveto
            -155 26 -92 0 vhcurveto
            hintmask 10100000
            103 hlineto
            0 -16 106 141 vvcurveto
            293 220 331 23 callsubr
          </CharString>
          <CharString index="59">
            167 -7 callgsubr
            -81 -808 -39 callgsubr
            return
          </CharString>
          <CharString index="60">
            76 -34 58 -86 -75 -67 -77 0 vhcurveto
            11 66 rlineto
            -104 hlineto
            -115 -500 rlineto
            return
          </CharString>
          <CharString index="61">
            rlineto
            -24 callgsubr
            return
          </CharString>
          <CharString index="62">
            167 1 callsubr
            29 -32 callgsubr
            return
          </CharString>
          <CharString index="63">
            110 hlineto
            30 135 -63 callsubr
            return
          </CharString>
          <CharString index="64">
            -19 10 -21 429 92 return
          </CharString>
          <CharString index="65">
            rmoveto
            -126 hlineto
            -54 -235 rlineto
            -112 hlineto
            159 -9 callsubr
            203 hlineto
            131 65 -51 -131 -142 -81 -83 -82 -28 hvcurveto
            return
          </CharString>
          <CharString index="66">
            rlineto
            471 479 rmoveto
            -141 -64 -241 -153 vhcurveto
            -119 hlineto
            return
          </CharString>
          <CharString index="67">
            126 241 -80 callsubr
            -99 -241 rlineto
            return
          </CharString>
          <CharString index="68">
            -8 0 83 -73 -21 511 -20 return
          </CharString>
          <CharString index="69">
            0 -83 -15 -79 -70 -29 38 70 return
          </CharString>
          <CharString index="70">
            82 72 100 0 hvcurveto
            return
          </CharString>
          <CharString index="71">
            -21 165 -20 return
          </CharString>
          <CharString index="72">
            -48 -99 51 -56 hhcurveto
            -57 -64 -52 0 hvcurveto
            10 -88 rlineto
            0 63 42 45 vhcurveto
            hintmask 10100000
            40 109 -51 55 hhcurveto
            58 56 52 0 hvcurveto
            return
          </CharString>
          <CharString index="73">
            rmoveto
            168 166 -69 57 -162 -168 rlineto
            -126 -55 rmoveto
            168 166 -69 56 -161 -167 rlineto
            endchar
          </CharString>
          <CharString index="74">
            -298 rmoveto
            90 hlineto
            102 226 rlineto
            -99 hlineto
            return
          </CharString>
          <CharString index="75">
            60 hmoveto
            -18 -79 -9 -10 -111 -56 35 -87 rcurveline
            166 74 12 16 33 142 115 500 rcurveline
            -108 hlineto
            return
          </CharString>
          <CharString index="76">
            -124 -35 rmoveto
            142 166 -82 39 -135 -170 rlineto
            return
          </CharString>
          <CharString index="77">
            rmoveto
            203 869 rlineto
            -212 hlineto
            -23 -93 rlineto
            101 hlineto
            -159 -683 rlineto
            -102 hlineto
            -22 -93 rlineto
            endchar
          </CharString>
          <CharString index="78">
            -234 -154 -19 -50 158 -161 27 98 -84 85 return
          </CharString>
          <CharString index="79">
            -37 -232 91 303 89 171 89 return
          </CharString>
          <CharString index="80">
            rmoveto
            312 hlineto
            21 87 rlineto
            -313 hlineto
            return
          </CharString>
          <CharString index="81">
            -11 97 513 97 return
          </CharString>
          <CharString index="82">
            -283 21 -21 708 -20 hstem
            61 109 vstem
            61 hmoveto
            -33 callgsubr
            return
          </CharString>
          <CharString index="83">
            47 21 -21 235 96 258 96 hstemhm
            70 112 return
          </CharString>
          <CharString index="84">
            -39 -13 24 41 return
          </CharString>
          <CharString index="85">
            95 498 rmoveto
            66 -24 25 -65 vhcurveto
            -106 hlineto
            -60 -258 rlineto
            115 hlineto
            88 52 76 91 hvcurveto
            return
          </CharString>
          <CharString index="86">
            799 rmoveto
            89 hlineto
            28 -35 callgsubr
            return
          </CharString>
          <CharString index="87">
            -80 callsubr
            -163 -708 rlineto
            return
          </CharString>
          <CharString index="88">
            rmoveto
            142 166 -83 39 -133 -169 rlineto
            return
          </CharString>
          <CharString index="89">
            6 -9 callsubr
            -199 hlineto
            return
          </CharString>
          <CharString index="90">
            vvcurveto
            -46 29 -25 49 37 return
          </CharString>
          <CharString index="91">
            -57 -249 rlineto
            return
          </CharString>
          <CharString index="92">
            115 110 104 -95 102 -94 110 -85 125 136 43 87 32 hintmask 0111100011100000
            return
          </CharString>
          <CharString index="93">
            114 45 127 102 43 72 -12 0 vhcurveto
            28 80 rlineto
            0 -74 26 -65 vhcurveto
            endchar
          </CharString>
          <CharString index="94">
            117 hlineto
            -84 341 240 344 rlineto
            -123 hlineto
            -206 -299 -76 -6 return
          </CharString>
          <CharString index="95">
            609 rmoveto
            98 22 callgsubr
            return
          </CharString>
          <CharString index="96">
            21 3 callsubr
            return
          </CharString>
          <CharString index="97">
            96 -50 95 hstemhm
            return
          </CharString>
          <CharString index="98">
            685 rlineto
            return
          </CharString>
          <CharString index="99">
            105 vstem
            197 444 rmoveto
            -40 callsubr
            return
          </CharString>
          <CharString index="100">
            60 108 return
          </CharString>
          <CharString index="101">
            -77 callsubr
            -62 callsubr
            return
          </CharString>
          <CharString index="102">
            -20 hstem
            223 108 87 112 vstem
            return
          </CharString>
          <CharString index="103">
            hstem
            -7 callsubr
            return
          </CharString>
          <CharString index="104">
            111 vstem
            return
          </CharString>
          <CharString index="105">
            rlineto
            107 hlineto
            77 40 -29 -80 hvcurveto
            endchar
          </CharString>
          <CharString index="106">
            76 69 72 115 -20 hstem
            return
          </CharString>
          <CharString index="107">
            hstemhm
            113 109 return
          </CharString>
          <CharString index="108">
            -117 rmoveto
            88 hlineto
            return
          </CharString>
          <CharString index="109">
            hlineto
            -159 -8 callgsubr
            -25 callgsubr
            return
          </CharString>
          <CharString index="110">
            -21 500 -20 return
          </CharString>
          <CharString index="111">
            70 67 21 38 49 hvcurveto
            113 91 51 179 171 vvcurveto
            return
          </CharString>
          <CharString index="112">
            59 107 -96 -21 277 98 0 0 22 -20 hstem
            190 82 return
          </CharString>
          <CharString index="113">
            12 vvcurveto
            123 55 129 89 13 11 -2 -4 10 vhcurveto
            return
          </CharString>
          <CharString index="114">
            rmoveto
            17 callsubr
          </CharString>
          <CharString index="115">
            -210 96 128 -20 return
          </CharString>
          <CharString index="116">
            76 58 75 35 76 hstem
            return
          </CharString>
          <CharString index="117">
            22 97 rlineto
            -239 hlineto
            return
          </CharString>
          <CharString index="118">
            90 rlineto
            0 -32 -4 -10 return
          </CharString>
          <CharString index="119">
            -98 0 93 314 93 return
          </CharString>
          <CharString index="120">
            hlineto
            -15 callgsubr
            return
          </CharString>
          <CharString index="121">
            hstemhm
            -7 callsubr
            return
          </CharString>
          <CharString index="122">
            rmoveto
            -25 callgsubr
            hintmask 01100110
            69 18 callsubr
            224 hlineto
            return
          </CharString>
          <CharString index="123">
            rmoveto
            -58 callgsubr
            return
          </CharString>
          <CharString index="124">
            -33 callgsubr
            endchar
          </CharString>
          <CharString index="125">
            143 rlineto
            return
          </CharString>
          <CharString index="126">
            38 0 143 -122 -21 143 -20 562 return
          </CharString>
          <CharString index="127">
            108 122 157 152 -108 127 return
          </CharString>
          <CharString index="128">
            hlineto
            13 callgsubr
            return
          </CharString>
          <CharString index="129">
            -25 49 37 52 10 0 vhcurveto
            return
          </CharString>
          <CharString index="130">
            0 vhcurveto
            endchar
          </CharString>
          <CharString index="131">
            685 rmoveto
            -99 hlineto
            -58 -243 4 callgsubr
            return
          </CharString>
          <CharString index="132">
            171 -116 rmoveto
            97 hlineto
            28 116 rlineto
            return
          </CharString>
          <CharString index="133">
            151 434 rmoveto
            -157 115 -122 return
          </CharString>
          <CharString index="134">
            -114 -119 -160 vhcurveto
            54 hmoveto
            124 return
          </CharString>
          <CharString index="135">
            0 0 97 200 72 306 21 hstemhm
            return
          </CharString>
        <CharString name=".notdef">
          -291 endchar
        </CharString>
        <CharString name=".null">
          -514 endchar
        </CharString>
        <CharString name="A">
          38 21 -55 callsubr
          293 111 hintmask 11011110
          18 hmoveto
          -54 callsubr
          hintmask 11100110
          -85 callgsubr
          endchar
        </CharString>
        <CharString name="AE">
          -80 callgsubr
          endchar
        </CharString>
        <CharString name="AEacute">
          -80 callgsubr
          276 527 -69 callgsubr
        </CharString>
        <CharString name="Aacute">
          38 21 -55 callsubr
          148 57 88 111 hintmask 11011111
          369 774 -87 callsubr
          -342 -859 -51 callgsubr
        </CharString>
        <CharString name="Abreve">
          38 21 -21 143 98 347 97 -76 -21 97 -20 123 86 hstemhm
          18 112 204 98 -9 111 12 98 hintmask 1101111101000000
          334 925 rmoveto
          -92 callsubr
          -414 -925 rmoveto
          -56 callgsubr
          hintmask 1101111011000000
          224 -143 -3 callgsubr
          -18 callsubr
          hintmask 1110011101000000
          -85 callgsubr
          endchar
        </CharString>
        <CharString name="Acircumflex">
          38 0 143 -143 851 -45 -21 146 -20 hstemhm
          287 115 118 96 hintmask 10111100
          287 785 rmoveto
          115 hlineto
          hintmask 01011100
          77 66 rlineto
          hintmask 10111100
          38 -66 4 callgsubr
          -96 146 rlineto
          -63 hlineto
          -439 -931 -19 callgsubr
          -85 callgsubr
          endchar
        </CharString>
        <CharString name="Adieresis">
          38 0 916 -895 -21 143 773 -96 -21 117 -20 hstemhm
          322 89 105 88 hintmask 01011110
          322 -21 callsubr
          -90 hlineto
          -45 callsubr
          hintmask 10000110
          -525 -916 15 callsubr
          hintmask 10000110
          -143 111 vlineto
          -18 callsubr
          -85 callgsubr
          endchar
        </CharString>
        <CharString name="Agrave">
          38 21 -55 callsubr
          136 56 101 111 hintmask 11011111
          374 -69 callsubr
          -562 -849 -51 callgsubr
        </CharString>
        <CharString name="Amacron">
          19 callsubr
          219 -66 -21 hstemhm
          18 112 169 312 hintmask 01101110
          299 817 rmoveto
          312 hlineto
          hintmask 01110110
          21 87 rlineto
          -313 hlineto
          hintmask 10001110
          -301 -904 5 callgsubr
          hintmask 10010110
          -18 callsubr
          -85 callgsubr
          endchar
        </CharString>
        <CharString name="Aogonek">
          38 8 callsubr
          27 -55 callsubr
          205 117 -29 111 hintmask 1011011101000000
          18 hmoveto
          -56 callgsubr
          224 -143 5 hlineto
          hintmask 1101011110000000
          -38 -31 -55 -58 -50 -53 callgsubr
          vhcurveto
          hintmask 1011011101000000
          27 49 50 27 20 vhcurveto
          6 4 hlineto
          6 681 rlineto
          -199 hlineto
          hintmask 1101100110000000
          -85 callgsubr
          endchar
        </CharString>
        <CharString name="Aring">
          19 callgsubr
          hstemhm
          401 169 -93 93 hintmask 10001010
          -70 callsubr
          hintmask 01010100
          159 486 rmoveto
          hintmask 01101010
          24 7 21 15 30 hhcurveto
          hintmask 01010100
          -12 callgsubr
        </CharString>
        <CharString name="Aringacute">
          19 callgsubr
          131 -21 hstemhm
          401 169 -93 93 hintmask 10001101
          -70 callsubr
          127 624 -89 callgsubr
          hintmask 01010110
          41 -224 rmoveto
          hintmask 01101101
          24 7 21 15 30 hhcurveto
          hintmask 01010110
          -12 callgsubr
        </CharString>
        <CharString name="Atilde">
          38 0 851 -830 -21 143 791 -144 -20 178 -21 hstemhm
          293 85 167 85 hintmask 01011110
          630 927 rmoveto
          0 -62 -41 -23 vhcurveto
          hintmask 01100110
          -27 -62 48 -55 hhcurveto
          -44 -67 -63 0 hvcurveto
          3 -76 rlineto
          0 62 43 23 vhcurveto
          hintmask 01011110
          35 64 -48 47 hhcurveto
          hintmask 10001110
          45 63 61 0 hvcurveto
          -614 -851 15 callsubr
          hintmask 10001110
          -143 111 vlineto
          -18 callsubr
          -85 callgsubr
          endchar
        </CharString>
        <CharString name="B">
          61 0 96 204 94 -73 -21 289 96 hstemhm
          228 90 152 115 -67 114 hintmask 10111100
          228 685 rmoveto
          -158 -8 callgsubr
          249 hlineto
          178 88 103 132 55 -17 35 -56 28 hvcurveto
          hintmask 10111010
          70 38 50 55 97 vvcurveto
          100 -64 42 -109 vhcurveto
          -75 -385 rmoveto
          hintmask 11011100
          54 32 -17 -51 -81 -48 -55 -81 hvcurveto
          -137 hlineto
          47 204 rlineto
          190 289 rmoveto
          hintmask 11011010
          53 24 -20 -47 -74 -51 -54 -70 hvcurveto
          -125 hlineto
          46 195 rlineto
          endchar
        </CharString>
        <CharString name="C">
          -16 -26 callsubr
          hstem
          105 115 -92 callgsubr
          endchar
        </CharString>
        <CharString name="CR">
          -291 endchar
        </CharString>
        <CharString name="Cacute">
          -16 -26 callsubr
          hstem
          105 115 -92 callgsubr
          -78 761 -69 callgsubr
        </CharString>
        <CharString name="Ccaron">
          -16 -26 callsubr
          87 145 hstem
          105 115 233 42 -92 callgsubr
          199 915 -87 callgsubr
          endchar
        </CharString>
        <CharString name="Ccedilla">
          -16 -10 callgsubr
          27 97 -81 -20 614 97 hstemhm
          105 115 35 46 -7 87 hintmask 11011110
          23 callgsubr
          hintmask 11101110
          -38 callsubr
          192 81 213 148 80 68 -14 0 vhcurveto
          26 84 rlineto
          0 -88 27 -81 -253 -96 -298 -212 -109 47 -68 100 -16 vhcurveto
          -19 -84 rlineto
          29 hlineto
          hintmask 11011101
          -97 callsubr
          -50 callsubr
          hintmask 11101110
          7 27 rlineto
          9 hlineto
          77 91 24 0 hvcurveto
          endchar
        </CharString>
        <CharString name="Ccircumflex">
          -16 -26 callsubr
          hstem
          105 115 -92 callgsubr
          -162 772 -91 callgsubr
          -63 hlineto
          endchar
        </CharString>
        <CharString name="Cdotaccent">
          -16 -11 97 133 -21 401 97 1 -20 103 118 hstemhm
          105 115 204 94 hintmask 11011110
          23 callgsubr
          -38 callsubr
          vhcurveto
          hintmask 11101110
          192 81 213 148 80 68 -14 0 vhcurveto
          26 84 rlineto
          0 -88 27 -81 -253 -96 -298 -212 -127 64 -70 136 77 91 24 0 vhcurveto
          -49 767 -34 callgsubr
          endchar
        </CharString>
        <CharString name="D">
          92 0 97 491 97 hstem
          70 135 336 115 vstem
          313 hmoveto
          -40 callgsubr
          -159 -685 -41 callsubr
          112 491 -2 callsubr
        </CharString>
        <CharString name="DLE">
          -514 endchar
        </CharString>
        <CharString name="Dcaron">
          92 0 97 491 97 98 145 hstem
          70 135 214 42 80 115 vstem
          70 hmoveto
          159 -9 callsubr
          217 hlineto
          120 90 -50 -156 -220 -105 -259 -238 hvcurveto
          228 479 rmoveto
          80 -40 29 -77 vhcurveto
          -107 hlineto
          -112 -491 rlineto
          119 hlineto
          153 64 241 141 hvcurveto
          97 449 -87 callgsubr
          endchar
        </CharString>
        <CharString name="Dcroat">
          98 0 97 193 110 188 97 hstem
          76 135 336 115 vstem
          319 hmoveto
          -40 callgsubr
          -66 -285 rlineto
          -62 hlineto
          -23 -110 rlineto
          59 hlineto
          -67 -290 -41 callsubr
          44 193 rlineto
          124 hlineto
          24 110 rlineto
          -123 hlineto
          43 188 -2 callsubr
        </CharString>
        <CharString name="Delta">
          46 0 93 475 92 hstem
          83 84 rmoveto
          -84 464 82 vlineto
          -138 578 rlineto
          -187 hlineto
          107 -92 rmoveto
          109 -475 rlineto
          -246 hlineto
          110 475 rlineto
          endchar
        </CharString>
        <CharString name="E">
          -14 0 -20 callgsubr
          hstem
          70 135 vstem
          70 hmoveto
          394 hlineto
          -103 callsubr
        </CharString>
        <CharString name="Eacute">
          -14 0 97 199 98 380 -20 100 97 hstem
          352 9 vstem
          361 774 -87 callsubr
          -282 -859 rmoveto
          394 hlineto
          -103 callsubr
        </CharString>
        <CharString name="Ebreve">
          -14 0 -20 callgsubr
          103 86 hstemhm
          70 135 107 98 114 98 hintmask 10111111
          312 925 rmoveto
          -92 callsubr
          -340 -925 rmoveto
          394 hlineto
          hintmask 01111111
          -103 callsubr
        </CharString>
        <CharString name="Ecaron">
          -14 0 -20 callgsubr
          111 145 hstemhm
          70 135 207 42 hintmask 10111110
          631 941 -87 callgsubr
          -403 -796 rmoveto
          394 hlineto
          hintmask 01111110
          -103 callsubr
        </CharString>
        <CharString name="Ecircumflex">
          -14 97 0 689 -20 20 66 80 0 hstem
          296 230 vstem
          296 786 -91 callgsubr
          -63 hlineto
          -396 -932 rmoveto
          394 hlineto
          -103 callsubr
        </CharString>
        <CharString name="Edieresis">
          -14 0 97 702 -20 hstemhm
          306 27 vstemhm
          306 -21 callsubr
          -90 hlineto
          167 1 callsubr
          hintmask 11100000
          29 -32 callgsubr
          -457 -916 rmoveto
          394 hlineto
          -103 callsubr
        </CharString>
        <CharString name="Edotaccent">
          -14 0 -20 20 97 138 -21 82 98 194 97 28 -20 103 118 hstemhm
          70 135 184 94 hintmask 1011111110000000
          389 796 -34 callgsubr
          -346 -914 rmoveto
          394 hlineto
          hintmask 0111111110000000
          -103 callsubr
        </CharString>
        <CharString name="Egrave">
          -14 0 97 199 98 371 81 3 -20 hstemhm
          350 206 hintmask 11011000
          hintmask 11101000
          350 941 rmoveto
          -53 -95 rlineto
          hintmask 11011000
          210 -81 49 84 rlineto
          -486 -849 rmoveto
          394 hlineto
          -103 callsubr
        </CharString>
        <CharString name="Emacron">
          -14 0 97 199 98 420 -20 20 87 hstem
          289 20 vstem
          289 814 -27 callsubr
          -239 -901 rmoveto
          394 hlineto
          -103 callsubr
        </CharString>
        <CharString name="Eng">
          128 70 hmoveto
          106 hlineto
          134 575 rlineto
          15 hlineto
          72 -575 rlineto
          68 hlineto
          -21 -92 -14 -9 -66 -1 -19 -98 rcurveline
          163 24 25 172 39 hvcurveto
          3 1 vlineto
          158 685 -80 callsubr
          -90 -395 -40 -173 rlineto
          -14 hlineto
          -66 568 rlineto
          -183 hlineto
          endchar
        </CharString>
        <CharString name="Eogonek">
          -14 -210 96 114 -20 callgsubr
          hstemhm
          70 135 51 117 hintmask 11011110
          70 hmoveto
          279 hlineto
          -38 -31 -55 -58 -50 -53 callgsubr
          27 49 50 27 20 vhcurveto
          15 hlineto
          hintmask 10111110
          -103 callsubr
        </CharString>
        <CharString name="Eth">
          98 290 189 -79 285 hstemhm
          76 303 -294 577 hintmask 10100000
          hintmask 10010000
          319 hmoveto
          hintmask 01010000
          -40 callgsubr
          -66 -285 rlineto
          hintmask 10010000
          -61 hlineto
          hintmask 10100000
          -23 -110 rlineto
          58 hlineto
          -67 -290 -41 callsubr
          44 193 rlineto
          hintmask 01010000
          124 hlineto
          25 110 rlineto
          hintmask 10100000
          -124 hlineto
          43 188 -2 callsubr
        </CharString>
        <CharString name="Euro">
          46 -11 94 111 86 85 86 127 93 hstem
          150 -3 callsubr
          513 97 rmoveto
          0 -80 -14 -76 -68 -28 37 67 vhcurveto
          7 232 vlineto
          20 86 rlineto
          -246 hlineto
          4 29 6 28 8 28 rrcurveto
          247 hlineto
          19 86 rlineto
          -234 hlineto
          75 38 55 52 72 hhcurveto
          77 66 -14 0 hvcurveto
          25 81 rlineto
          0 -85 26 -78 -143 -90 -98 -122 -51 vhcurveto
          -49 hlineto
          -21 -86 rlineto
          41 hlineto
          -8 -29 -5 -28 -4 -28 rrcurveto
          -42 hlineto
          -20 -86 rlineto
          55 -15 hlineto
          -122 62 -68 131 74 88 24 23 callsubr
        </CharString>
        <CharString name="F">
          -35 0 0 21 -21 256 97 235 97 0 -20 hstem
          70 112 vstem
          70 hmoveto
          -25 callgsubr
          59 256 rlineto
          229 hlineto
          24 97 rlineto
          -230 hlineto
          53 235 rlineto
          274 -46 callgsubr
          -385 hlineto
          endchar
        </CharString>
        <CharString name="G">
          -23 callgsubr
          hstemhm
          8 36 63 115 136 136 -26 133 hintmask 0111111100000000
          387 277 rmoveto
          hintmask 1001111010000000
          -88 callgsubr
          endchar
        </CharString>
        <CharString name="Gbreve">
          -23 callgsubr
          72 100 hstemhm
          8 36 63 115 132 106 8 133 -13 105 hintmask 0111111110100000
          354 925 rmoveto
          -2 -14 -1 -14 1 -13 rrcurveto
          -65 3 40 -51 87 hhcurveto
          112 71 66 91 28 hvcurveto
          -105 hlineto
          -37 -12 -26 -21 -40 hhcurveto
          -33 -17 17 25 -1 hvcurveto
          5 -1 5 2 6 vhcurveto
          -73 -648 rmoveto
          hintmask 1001111111000000
          -88 callgsubr
          endchar
        </CharString>
        <CharString name="Gcircumflex">
          56 86 679 -658 -21 191 653 -351 186 hstemhm
          8 36 314 136 -68 219 -213 24 hintmask 01011100
          317 765 rmoveto
          hintmask 01011001
          115 hlineto
          71 74 35 -74 rlineto
          hintmask 10001010
          107 hlineto
          hintmask 01101100
          -86 165 rlineto
          -80 hlineto
          hintmask 01011100
          hintmask 01101100
          -92 -653 rmoveto
          81 hlineto
          hintmask 01101010
          -57 callgsubr
          vhcurveto
          hintmask 01011001
          -17 callgsubr
          vhcurveto
          hintmask 01011010
          89 100 -20 0 hvcurveto
          26 81 rlineto
          0 -98 36 -106 -249 -111 -251 -250 -139 76 -67 142 117 76 26 0 vhcurveto
          83 355 rlineto
          -192 hlineto
          endchar
        </CharString>
        <CharString name="Gcommaaccent">
          -23 callgsubr
          hstemhm
          8 36 63 115 22 99 15 136 -26 133 hintmask 0111111110000000
          387 277 rmoveto
          hintmask 1001111101000000
          -88 callgsubr
          -165 -442 -72 callsubr
          endchar
        </CharString>
        <CharString name="Gdotaccent">
          56 194 83 -82 565 -181 298 -277 -21 298 -20 hstemhm
          8 36 314 136 -107 69 11 74 hintmask 0100111000000000
          439 760 rmoveto
          hintmask 0100110110000000
          102 hlineto
          hintmask 1010011000000000
          -15 callgsubr
          -102 hlineto
          hintmask 0100111000000000
          hintmask 1001110110000000
          -79 -600 rmoveto
          81 hlineto
          -57 callgsubr
          -17 callgsubr
          89 100 -20 0 vhcurveto
          26 81 rlineto
          0 -98 36 -106 vhcurveto
          hintmask 0100111000000000
          -249 -111 -251 -250 -139 76 -67 142 117 76 26 0 hvcurveto
          83 355 rlineto
          -192 hlineto
          endchar
        </CharString>
        <CharString name="H">
          -71 callgsubr
          endchar
        </CharString>
        <CharString name="Hbar">
          118 21 -21 293 104 96 95 97 -20 hstem
          234 107 267 107 vstem
          118 490 rmoveto
          71 hlineto
          -113 -490 rlineto
          107 hlineto
          67 293 rlineto
          268 hlineto
          -68 -293 rlineto
          107 hlineto
          113 490 rlineto
          67 hlineto
          25 98 rlineto
          -70 -46 callgsubr
          -107 hlineto
          -22 -97 rlineto
          -268 -46 callgsubr
          -107 hlineto
          -23 -97 rlineto
          -71 hlineto
          -22 -95 rlineto
          156 -96 rmoveto
          21 93 rlineto
          268 hlineto
          -21 -93 rlineto
          endchar
        </CharString>
        <CharString name="Hcircumflex">
          -71 callgsubr
          -188 485 -91 callgsubr
          -63 hlineto
          endchar
        </CharString>
        <CharString name="I">
          -262 21 -21 hstem
          70 112 47 -3 callsubr
          70 hmoveto
          -25 callgsubr
          -75 callgsubr
          endchar
        </CharString>
        <CharString name="Iacute">
          -262 795 -21 hstemhm
          224 248 -239 249 hintmask 10100000
          233 774 rmoveto
          249 80 rlineto
          hintmask 11000000
          -10 97 -248 -92 rlineto
          hintmask 10100000
          -154 -859 rmoveto
          -25 callgsubr
          -75 callgsubr
          endchar
        </CharString>
        <CharString name="Ibreve">
          -262 21 -21 788 86 hstemhm
          70 112 2 98 -53 111 56 98 hintmask 11110100
          184 925 rmoveto
          -92 callsubr
          -212 -925 rmoveto
          -25 callgsubr
          hintmask 11101100
          -75 callgsubr
          endchar
        </CharString>
        <CharString name="Icircumflex">
          -262 807 -21 hstem
          137 115 77 38 vstem
          137 786 -91 callgsubr
          -63 hlineto
          -237 -932 rmoveto
          -25 callgsubr
          -75 callgsubr
          endchar
        </CharString>
        <CharString name="Idieresis">
          -262 829 -21 hstemhm
          164 89 -62 90 hintmask 11000000
          164 808 rmoveto
          89 hlineto
          hintmask 10100000
          13 callgsubr
          hintmask 11000000
          -45 callsubr
          -315 -925 rmoveto
          -25 callgsubr
          -75 callgsubr
          endchar
        </CharString>
        <CharString name="Idotaccent">
          -262 21 -21 235 -21 499 -20 103 118 hstemhm
          70 112 47 111 -81 94 hintmask 11111010
          259 796 -34 callgsubr
          -216 -914 rmoveto
          -25 callgsubr
          hintmask 11111100
          -75 callgsubr
          endchar
        </CharString>
        <CharString name="Igrave">
          -262 870 -21 hstem
          146 53 157 49 vstem
          199 -69 callsubr
          -335 -849 rmoveto
          -25 callgsubr
          -75 callgsubr
          endchar
        </CharString>
        <CharString name="Imacron">
          -262 846 -21 hstemhm
          151 312 -292 313 hintmask 11000000
          151 825 rmoveto
          312 hlineto
          hintmask 10100000
          21 87 rlineto
          -313 hlineto
          hintmask 11000000
          -101 -912 rmoveto
          -25 callgsubr
          -75 callgsubr
          endchar
        </CharString>
        <CharString name="Iogonek">
          -262 8 callsubr
          27 -21 hstemhm
          -21 117 -26 112 47 111 hintmask 10101100
          70 hmoveto
          2 hlineto
          hintmask 11010100
          -38 -31 -55 -58 -50 vvcurveto
          -46 29 22 callsubr
          10 11 callsubr
          -12 -6 7 10 vhcurveto
          hintmask 10101100
          29 53 51 33 17 vhcurveto
          -75 callgsubr
          endchar
        </CharString>
        <CharString name="Itilde">
          -262 940 -21 hstem
          149 111 144 85 vstem
          489 919 -91 callsubr
          -421 -843 rmoveto
          -25 callgsubr
          -75 callgsubr
          endchar
        </CharString>
        <CharString name="J">
          -62 callgsubr
          endchar
        </CharString>
        <CharString name="Jcircumflex">
          -62 callgsubr
          -80 657 -91 callgsubr
          -63 hlineto
          endchar
        </CharString>
        <CharString name="K">
          18 21 -21 282 98 hstem
          229 111 61 117 33 123 vstem
          401 hmoveto
          -13 callsubr
          -21 callgsubr
        </CharString>
        <CharString name="Kcommaaccent">
          18 21 -21 282 98 hstemhm
          222 99 -92 111 61 117 33 123 hintmask 11101100
          222 -72 -72 callsubr
          272 298 rmoveto
          -13 callsubr
          rlineto
          hintmask 11011100
          -21 callgsubr
        </CharString>
        <CharString name="L">
          -87 0 97 609 -21 hstem
          229 -3 callsubr
          422 hmoveto
          10 callsubr
          135 588 -66 callsubr
          endchar
        </CharString>
        <CharString name="Lacute">
          -87 774 80 26 -21 hstem
          298 124 vstem
          307 774 -87 callsubr
          124 -859 rmoveto
          10 callsubr
          135 588 -66 callsubr
          endchar
        </CharString>
        <CharString name="Lcaron">
          -55 0 97 366 -21 243 -20 41 -21 hstem
          229 111 136 98 vstem
          574 685 rmoveto
          -98 hlineto
          -59 -243 rlineto
          100 hlineto
          -95 -442 rmoveto
          10 callsubr
          135 588 -66 callsubr
          endchar
        </CharString>
        <CharString name="Lcommaaccent">
          -87 0 97 609 -21 hstemhm
          184 99 -54 111 hintmask 11100000
          184 -72 -72 callsubr
          331 298 rmoveto
          10 callsubr
          hintmask 11010000
          135 588 -66 callsubr
          endchar
        </CharString>
        <CharString name="Lslash">
          -86 0 97 -97 111 595 -21 hstem
          231 -3 callsubr
          424 hmoveto
          10 callsubr
          50 219 178 111 -34 76 -118 -74 59 256 -67 callsubr
          -79 -338 -98 -61 33 -76 rlineto
          1 hlineto
          38 24 -54 -234 rlineto
          endchar
        </CharString>
        <CharString name="M">
          271 21 -21 588 -20 20 97 hstemhm
          70 112 163 108 150 112 hintmask 11011100
          70 hmoveto
          -25 callgsubr
          135 588 rlineto
          7 hlineto
          21 -560 -46 callsubr
          279 560 rlineto
          8 hlineto
          -137 -588 rlineto
          -25 callgsubr
          hintmask 10111100
          158 -9 callsubr
          -180 hlineto
          -267 -534 -20 534 rlineto
          -177 hlineto
          endchar
        </CharString>
        <CharString name="N">
          -5 callgsubr
          hstem
          70 106 446 108 vstem
          70 hmoveto
          -88 callsubr
        </CharString>
        <CharString name="Nacute">
          128 0 -20 595 -20 219 0 hstem
          310 15 70 249 vstem
          395 774 -87 callsubr
          -316 -859 rmoveto
          -88 callsubr
        </CharString>
        <CharString name="Ncaron">
          -5 callgsubr
          116 145 hstem
          70 106 285 42 119 108 vstem
          680 926 -87 callgsubr
          -452 -781 rmoveto
          -88 callsubr
        </CharString>
        <CharString name="Ncommaaccent">
          -5 callgsubr
          hstem
          70 106 105 99 242 108 vstem
          281 -72 -72 callsubr
          -118 298 rmoveto
          -88 callsubr
        </CharString>
        <CharString name="Ntilde">
          128 0 0 117 -20 477 0 111 -20 hstemhm
          70 106 446 108 -102 106 hintmask 11111010
          671 925 -91 callsubr
          -603 -849 rmoveto
          106 hlineto
          134 575 rlineto
          15 hlineto
          72 -575 rlineto
          175 hlineto
          hintmask 11111100
          158 685 -80 callsubr
          -129 -568 rlineto
          -15 hlineto
          -66 568 rlineto
          -183 hlineto
          endchar
        </CharString>
        <CharString name="O">
          106 -26 callsubr
          hstem
          106 115 334 115 vstem
          337 86 rmoveto
          -86 -30 34 86 113 43 172 83 75 hvcurveto
          -76 callsubr
        </CharString>
        <CharString name="OE">
          329 804 hmoveto
          25 107 rlineto
          -292 hlineto
          45 189 235 -2 23 102 rlineto
          -235 hlineto
          46 190 rlineto
          293 hlineto
          24 107 rlineto
          -396 hlineto
          5 -30 -61 6 -27 hhcurveto
          -170 -103 -114 -245 -58 hvcurveto
          -18 -75 -7 -62 2 -52 rrcurveto
          -109 5 56 -58 125 hhcurveto
          34 51 5 6 40 hvcurveto
          -87 96 rmoveto
          -81 -32 34 75 38 8 45 13 58 hvcurveto
          178 43 57 72 110 hhcurveto
          36 51 -4 -2 19 hvcurveto
          -116 -487 rlineto
          -3 -35 -52 -4 -21 hhcurveto
          endchar
        </CharString>
        <CharString name="Oacute">
          106 -26 callsubr
          hstem
          106 115 334 115 vstem
          337 86 rmoveto
          -86 -30 34 86 113 43 172 83 75 hvcurveto
          23 26 32 10 35 hhcurveto
          -105 callsubr
          84 785 -69 callgsubr
        </CharString>
        <CharString name="Obreve">
          106 -26 callsubr
          92 86 hstemhm
          106 115 137 98 99 115 -100 98 hintmask 11111010
          358 925 rmoveto
          -92 callsubr
          -119 -839 rmoveto
          -6 callsubr
          hintmask 11111100
          -105 callsubr
          endchar
        </CharString>
        <CharString name="Ocircumflex">
          106 -26 callsubr
          hstem
          106 115 334 115 vstem
          337 86 rmoveto
          -86 -30 34 86 113 43 172 83 75 hvcurveto
          23 26 32 10 35 hhcurveto
          -105 callsubr
          6 796 -91 callgsubr
          -63 hlineto
          endchar
        </CharString>
        <CharString name="Odieresis">
          106 566 345 -116 116 hstemhm
          221 319 -100 115 hintmask 01010000
          343 795 rmoveto
          97 hlineto
          28 116 rlineto
          -99 hlineto
          hintmask 01100000
          25 callsubr
          -98 hlineto
          -230 -825 rmoveto
          -86 -30 34 86 hvcurveto
          hintmask 10010000
          -79 callgsubr
        </CharString>
        <CharString name="Ograve">
          106 86 855 -342 250 hstemhm
          337 98 71 54 hintmask 01110000
          hintmask 10110000
          403 -69 callsubr
          hintmask 01110000
          -272 -763 rmoveto
          -86 -30 34 86 113 43 172 83 75 hvcurveto
          hintmask 10110000
          23 26 32 10 35 hhcurveto
          84 31 -35 -85 -124 -41 -161 -79 -71 hvcurveto
          hintmask 01110000
          -103 callgsubr
          endchar
        </CharString>
        <CharString name="Ohungarumlaut">
          106 566 223 -36 36 hstemhm
          221 184 150 190 hintmask 01110000
          603 753 -19 callsubr
          -31 callsubr
          7 -703 rmoveto
          -86 -30 34 86 hvcurveto
          hintmask 10110000
          -79 callgsubr
        </CharString>
        <CharString name="Omacron">
          106 -26 callsubr
          hstem
          106 115 334 115 vstem
          337 86 rmoveto
          -86 -30 34 86 113 43 172 83 75 hvcurveto
          23 26 32 10 35 hhcurveto
          -105 callsubr
          12 825 -27 callsubr
          endchar
        </CharString>
        <CharString name="Omega">
          46 -9 93 490 97 hstem
          107 115 234 115 vstem
          108 84 rmoveto
          -93 203 81 vlineto
          0 -89 162 119 vvcurveto
          154 15 67 102 101 16 -67 -154 -119 -89 -162 0 vhcurveto
          -81 203 93 -99 vlineto
          0 100 139 158 vvcurveto
          198 -59 92 -173 -173 -59 -92 -198 -158 99 -139 23 callsubr
        </CharString>
        <CharString name="Oslash">
          106 -118 34 73 97 273 416 -176 97 hstemhm
          106 115 105 335 -241 30 105 115 hintmask 11101011
          116 -48 callgsubr
          rlineto
          hintmask 11011100
          -74 callsubr
          hintmask 11101011
          -153 -224 rlineto
          -53 callsubr
          endchar
        </CharString>
        <CharString name="Oslashacute">
          108 86 773 -94 36 hstemhm
          61 56 231 303 hintmask 01110000
          117 -48 callgsubr
          -74 callsubr
          -153 -224 rlineto
          hintmask 10110000
          -53 callsubr
          hintmask 01110000
          64 679 rmoveto
          249 81 -11 105 rlineto
          hintmask 10110000
          -248 -92 rlineto
          endchar
        </CharString>
        <CharString name="Otilde">
          106 -11 97 -97 98 512 97 -97 98 hstemhm
          106 115 -114 111 337 115 -112 111 hintmask 10010101
          678 925 -91 callsubr
          -343 -763 rmoveto
          hintmask 01101001
          -6 callsubr
          hintmask 10100110
          -85 callsubr
          -102 callgsubr
          hintmask 01011001
          -89 callsubr
          endchar
        </CharString>
        <CharString name="P">
          33 21 -21 212 97 279 97 hstem
          70 112 331 114 vstem
          344 212 rmoveto
          177 106 108 185 124 -57 56 -136 hvcurveto
          -205 2 callsubr
          49 212 rlineto
          22 97 rmoveto
          64 279 -46 callsubr
          64 24 -28 -56 -116 -54 -79 -99 hvcurveto
          endchar
        </CharString>
        <CharString name="Q">
          106 -150 749 -590 77 hstemhm
          337 98 71 8 hintmask 10110000
          320 -11 rmoveto
          15 15 1 2 15 hvcurveto
          44 -142 105 35 -48 138 14 7 14 8 12 10 rlinecurve
          113 91 51 179 171 vvcurveto
          146 -82 61 -136 -74 -64 -24 -45 -50 vhcurveto
          -89 callsubr
          hintmask 01110000
          17 97 -55 callgsubr
          endchar
        </CharString>
        <CharString name="R">
          -24 callsubr
          180 103 -47 111 -16 115 hintmask 11111010
          hintmask 11110100
          418 hmoveto
          -74 callgsubr
        </CharString>
        <CharString name="Racute">
          -24 callsubr
          180 103 -47 111 -16 115 hintmask 11111010
          362 235 -42 callsubr
          hintmask 11110100
          64 -250 -67 callsubr
          hintmask 11111010
          -22 callsubr
          -171 276 -69 callgsubr
        </CharString>
        <CharString name="Rcaron">
          47 21 -21 235 96 258 96 97 145 hstemhm
          70 112 180 103 -63 42 -26 111 -16 115 hintmask 1111101010000000
          621 927 -87 callgsubr
          hintmask 1111110010000000
          -101 -547 -42 callsubr
          hintmask 1111100100000000
          64 -250 -67 callsubr
          hintmask 1111110010000000
          -22 callsubr
          endchar
        </CharString>
        <CharString name="Rcommaaccent">
          -24 callsubr
          57 99 24 103 -47 111 -16 115 hintmask 11111101
          146 -33 callsubr
          179 72 rmoveto
          -74 callgsubr
        </CharString>
        <CharString name="S">
          -17 -11 97 515 95 hstem
          153 113 131 114 vstem
          588 663 rmoveto
          -99 callgsubr
          endchar
        </CharString>
        <CharString name="Sacute">
          -17 -11 97 515 95 hstem
          153 113 131 114 vstem
          588 663 rmoveto
          -99 callgsubr
          -224 191 -69 callgsubr
        </CharString>
        <CharString name="Scaron">
          -17 -11 97 -97 106 503 106 -103 95 87 145 hstemhm
          153 108 -108 113 131 114 -100 42 hintmask 0110110010000000
          630 928 -87 callgsubr
          116 -120 rmoveto
          hintmask 1001101100000000
          -99 callgsubr
          endchar
        </CharString>
        <CharString name="Scedilla">
          -17 -10 callgsubr
          27 97 -97 106 -90 -20 613 106 -103 95 hstemhm
          153 108 -108 113 -42 46 -7 87 47 114 -108 108 hintmask 1100110001001000
          588 663 rmoveto
          hintmask 1100101001001000
          0 -98 33 -101 vhcurveto
          hintmask 1100110010010000
          -145 -91 -90 -131 -91 44 -37 94 -38 hvcurveto
          88 -36 18 -13 -47 vvcurveto
          hintmask 1110010001001000
          -88 -51 -39 -88 -72 -115 19 0 vhcurveto
          -18 -81 rlineto
          0 79 -27 88 -6 vhcurveto
          -18 -82 rlineto
          29 hlineto
          hintmask 1100110100101000
          -97 callsubr
          -50 callsubr
          hintmask 1101010001001000
          7 27 rlineto
          149 3 97 84 150 vvcurveto
          89 -31 34 -108 45 vhcurveto
          hintmask 1100110010001000
          -86 34 -20 13 46 vvcurveto
          hintmask 1100101001001000
          72 47 42 77 70 108 -18 23 callsubr
        </CharString>
        <CharString name="Scircumflex">
          -17 -11 97 515 95 hstem
          153 113 131 114 vstem
          588 663 rmoveto
          -99 callgsubr
          -308 202 -91 callgsubr
          -63 hlineto
          endchar
        </CharString>
        <CharString name="Scommaaccent">
          -17 -11 97 515 95 hstemhm
          153 113 -72 99 104 114 hintmask 11011000
          194 -72 -72 callsubr
          487 961 rmoveto
          0 -98 33 -101 vhcurveto
          hintmask 11101000
          -145 -91 -90 -131 -91 44 -37 94 -38 hvcurveto
          -94 callsubr
          endchar
        </CharString>
        <CharString name="T">
          -53 21 -21 588 97 hstem
          174 -3 callsubr
          145 588 rmoveto
          164 hlineto
          -60 callgsubr
        </CharString>
        <CharString name="Tbar">
          -48 0 269 118 -21 hstem
          127 385 vstem
          148 588 rmoveto
          164 hlineto
          -51 -222 rlineto
          -134 hlineto
          -23 -97 rlineto
          135 hlineto
          -62 -269 rlineto
          -3 callgsubr
          62 269 rlineto
          137 hlineto
          25 97 rlineto
          -140 hlineto
          52 222 -27 callgsubr
          endchar
        </CharString>
        <CharString name="Tcaron">
          -53 21 -21 588 97 97 145 hstem
          174 111 86 42 vstem
          590 927 -87 callgsubr
          -287 -194 rmoveto
          164 hlineto
          -60 callgsubr
        </CharString>
        <CharString name="Tcedilla">
          -53 -10 callgsubr
          43 -20 36 -21 588 97 hstemhm
          174 111 -76 45 -5 87 hintmask 11101001
          336 -124 rmoveto
          -50 callsubr
          hintmask 11011010
          10 38 rlineto
          hintmask 11011100
          31 hlineto
          136 588 -27 callgsubr
          -23 -97 rlineto
          164 hlineto
          -135 -588 rlineto
          hintmask 11011010
          35 hlineto
          -21 -91 rlineto
          29 hlineto
          hintmask 11101001
          -97 callsubr
          endchar
        </CharString>
        <CharString name="Tcommaaccent">
          -53 21 -21 588 97 hstemhm
          169 99 -94 111 hintmask 11100000
          169 -72 -72 callsubr
          69 886 rmoveto
          164 hlineto
          hintmask 11010000
          -60 callgsubr
        </CharString>
        <CharString name="Thorn">
          29 21 -21 108 110 264 107 104 -20 hstem
          232 106 153 107 vstem
          348 218 rmoveto
          -123 hlineto
          63 264 121 -2 84 -1 15 -60 -17 -66 rlinecurve
          -81 -20 -46 -54 -77 hhcurveto
          -25 -110 rmoveto
          143 -1 100 97 32 149 rrcurveto
          130 28 -53 106 -139 hhcurveto
          -122 hlineto
          26 104 rlineto
          -106 hlineto
          -163 -693 rlineto
          105 hlineto
          25 109 rlineto
          endchar
        </CharString>
        <CharString name="U">
          -90 callsubr
          endchar
        </CharString>
        <CharString name="Uacute">
          -90 callsubr
          144 549 -69 callgsubr
        </CharString>
        <CharString name="Ubreve">
          80 -11 97 599 -20 123 86 hstem
          337 98 114 98 vstem
          337 925 rmoveto
          -92 callsubr
          -101 -240 -107 callsubr
          endchar
        </CharString>
        <CharString name="Ucircumflex">
          -90 callsubr
          80 560 -91 callgsubr
          -63 hlineto
          endchar
        </CharString>
        <CharString name="Udieresis">
          80 685 110 0 -20 hstem
          322 795 rmoveto
          98 hlineto
          27 116 rlineto
          -98 hlineto
          25 callsubr
          -99 hlineto
          -212 -226 -107 callsubr
          endchar
        </CharString>
        <CharString name="Ugrave">
          80 222 463 164 -20 hstem
          390 -69 callsubr
          -262 -164 -107 callsubr
          endchar
        </CharString>
        <CharString name="Uhungarumlaut">
          80 685 62 -1 -20 hstemhm
          hintmask 01000000
          577 746 -19 callsubr
          hintmask 10000000
          -31 callsubr
          30 -97 -107 callsubr
          endchar
        </CharString>
        <CharString name="Umacron">
          -90 callsubr
          89 589 -27 callsubr
          endchar
        </CharString>
        <CharString name="Uogonek">
          83 -210 96 105 95 -72 -20 691 -20 hstemhm
          190 117 hintmask 11011000
          335 685 rmoveto
          -112 hlineto
          -103 -444 rlineto
          -6 -30 -6 -41 -31 vvcurveto
          -93 64 -46 100 -9 vhcurveto
          -37 -33 -45 -51 -46 -53 callgsubr
          vhcurveto
          hintmask 10111000
          25 41 43 27 23 vhcurveto
          115 18 60 73 32 137 107 463 rcurveline
          -112 hlineto
          -107 -463 rlineto
          hintmask 11011000
          -91 -21 -32 -45 -96 hhcurveto
          -63 -39 16 54 23 4 24 5 22 hvcurveto
          endchar
        </CharString>
        <CharString name="Uring">
          80 838 -20 20 0 hstem
          609 838 -67 callgsubr
          -106 -153 -107 callsubr
          endchar
        </CharString>
        <CharString name="Utilde">
          80 685 109 132 -20 hstem
          649 926 -91 callsubr
          -317 -165 -107 callsubr
          endchar
        </CharString>
        <CharString name="V">
          37 21 -21 97 -20 608 -20 hstemhm
          175 111 -12 38 266 112 hintmask 11110100
          578 685 rmoveto
          -266 -588 rlineto
          hintmask 11101100
          -38 hlineto
          12 588 -67 callsubr
          -4 -8 callgsubr
          202 hlineto
          317 -9 callsubr
          endchar
        </CharString>
        <CharString name="W">
          335 21 -21 103 -20 602 -20 hstem
          179 112 227 122 233 -3 callsubr
          179 685 -68 callsubr
          294 685 rlineto
          -86 callgsubr
        </CharString>
        <CharString name="Wacute">
          335 21 -21 103 -20 602 -20 28 -20 hstemhm
          179 112 227 122 233 111 hintmask 11011110
          503 774 -87 callsubr
          hintmask 11101110
          -315 -174 -68 callsubr
          294 685 rlineto
          -86 callgsubr
        </CharString>
        <CharString name="Wcircumflex">
          335 0 -20 825 -21 hstemhm
          179 423 -170 441 -354 27 hintmask 11010000
          432 784 -91 callgsubr
          hintmask 11100000
          -63 hlineto
          hintmask 11010000
          hintmask 11100000
          -423 -245 rmoveto
          -29 -8 callgsubr
          176 hlineto
          hintmask 11001000
          220 527 -27 -527 rlineto
          171 hlineto
          294 -9 callsubr
          hintmask 11010000
          -86 callgsubr
        </CharString>
        <CharString name="Wdieresis">
          335 685 -20 155 -21 hstemhm
          326 220 -89 527 -306 90 hintmask 11010000
          457 799 rmoveto
          hintmask 11101000
          89 21 callsubr
          hintmask 11010000
          167 1 callsubr
          hintmask 11101000
          29 -32 callgsubr
          -499 -231 -68 callsubr
          hintmask 11010000
          294 685 rlineto
          -86 callgsubr
        </CharString>
        <CharString name="Wgrave">
          335 0 -20 806 -21 84 -20 hstem
          326 220 94 79 154 -3 callsubr
          513 -69 callsubr
          -540 -164 -68 callsubr
          294 685 rlineto
          -86 callgsubr
        </CharString>
        <CharString name="X">
          3 6 119 48 118 99 116 vstem
          291 685 rmoveto
          -118 hlineto
          99 -340 -266 -345 rlineto
          119 hlineto
          194 262 71 -262 rlineto
          116 hlineto
          -102 343 262 342 rlineto
          -119 hlineto
          -190 -260 rlineto
          endchar
        </CharString>
        <CharString name="Y">
          -15 21 -21 hstemhm
          163 113 -82 104 236 118 hintmask 11010000
          652 685 -73 callgsubr
          100 -387 rlineto
          hintmask 10110000
          -63 callgsubr
        </CharString>
        <CharString name="Yacute">
          -15 21 -21 249 49 395 -20 hstemhm
          163 113 -82 104 -35 101 170 118 hintmask 11110010
          345 774 -87 callsubr
          316 -174 -73 callgsubr
          hintmask 11100110
          100 -387 rlineto
          hintmask 11101010
          -63 callgsubr
        </CharString>
        <CharString name="Ycircumflex">
          -15 951 -21 hstemhm
          261 115 55 221 -161 99 hintmask 11010000
          261 784 -91 callgsubr
          hintmask 11100000
          -63 hlineto
          221 -245 -73 callgsubr
          100 -387 -63 callgsubr
        </CharString>
        <CharString name="Ydieresis">
          -15 937 -21 hstemhm
          283 89 -62 167 27 90 hintmask 11010000
          283 -21 callsubr
          hintmask 10110000
          -90 hlineto
          hintmask 11010000
          hintmask 10110000
          -45 callsubr
          148 -231 -73 callgsubr
          100 -387 -63 callgsubr
        </CharString>
        <CharString name="Ygrave">
          -15 416 -21 hstemhm
          276 62 2 312 -155 49 hintmask 11010000
          hintmask 11100000
          340 -69 callsubr
          hintmask 11010000
          106 -164 -73 callgsubr
          100 -387 -63 callgsubr
        </CharString>
        <CharString name="Z">
          -22 0 97 491 97 hstem
          173 588 -77 callgsubr
        </CharString>
        <CharString name="Zacute">
          -22 97 757 -291 25 hstemhm
          hintmask 10000000
          324 774 -87 callsubr
          hintmask 01000000
          -142 -271 rmoveto
          290 hlineto
          -6 -25 -393 -442 -27 -121 rlineto
          417 hlineto
          hintmask 10000000
          23 97 rlineto
          -293 hlineto
          6 25 395 440 28 123 rlineto
          -417 hlineto
          endchar
        </CharString>
        <CharString name="Zcaron">
          -22 0 97 10 14 452 12 3 97 96 145 hstem
          400 42 vstem
          619 926 -87 callgsubr
          -288 -193 -77 callgsubr
        </CharString>
        <CharString name="Zdotaccent">
          -22 0 97 138 -21 374 97 28 -20 103 118 hstem
          378 94 vstem
          378 796 -34 callgsubr
          -232 -326 -77 callgsubr
        </CharString>
        <CharString name="a">
          -42 callgsubr
          3 callgsubr
          vstem
          219 -11 -107 callgsubr
          endchar
        </CharString>
        <CharString name="aacute">
          -42 callgsubr
          86 -21 3 callgsubr
          vstem
          219 -11 -107 callgsubr
          -2 166 -89 callgsubr
          endchar
        </CharString>
        <CharString name="abreve">
          -42 callgsubr
          80 90 3 callgsubr
          100 97 128 97 vstem
          219 -11 -107 callgsubr
          -46 320 -96 callgsubr
        </CharString>
        <CharString name="acircumflex">
          2 -2 747 -263 98 hstemhm
          219 118 hintmask 01100000
          224 -4 callgsubr
          72 74 34 -74 -46 callsubr
          hintmask 10100000
          -87 165 rlineto
          -79 hlineto
          hintmask 01100000
          -168 -756 rmoveto
          -37 callsubr
          hintmask 10100000
          -4 -19 -11 -72 0 vvcurveto
          107 4 rlineto
          -61 callgsubr
          hintmask 01100000
          75 324 rlineto
          0 -161 29 -69 -176 -77 -210 -145 -98 39 -69 96 vhcurveto
          121 430 rmoveto
          35 68 -15 0 hvcurveto
          -51 -215 rlineto
          0 -86 -107 -51 -47 -14 27 47 106 49 157 97 vhcurveto
          endchar
        </CharString>
        <CharString name="acute">
          39 597 -21 hstem
          265 585 -89 callgsubr
          endchar
        </CharString>
        <CharString name="acute.cap.001">
          4 310 774 -69 callgsubr
        </CharString>
        <CharString name="adieresis">
          2 89 637 -568 451 hstemhm
          476 91 hintmask 01100000
          252 609 rmoveto
          98 hlineto
          hintmask 10100000
          12 callgsubr
          hintmask 01100000
          -18 callgsubr
          hintmask 10100000
          12 callgsubr
          hintmask 01100000
          -257 -737 rmoveto
          hintmask 10100000
          -37 callsubr
          -4 -19 -11 -72 0 vvcurveto
          107 4 rlineto
          hintmask 01100000
          -61 callgsubr
          75 324 rlineto
          0 -161 29 -69 -176 -77 -210 -145 -98 39 -69 96 vhcurveto
          121 430 rmoveto
          35 68 -15 0 hvcurveto
          -51 -215 rlineto
          0 -86 -107 -51 -47 -14 27 47 106 49 157 97 vhcurveto
          endchar
        </CharString>
        <CharString name="ae">
          215 -97 callgsubr
          endchar
        </CharString>
        <CharString name="aeacute">
          215 597 -21 hstem
          -97 callgsubr
          -253 298 -89 callgsubr
          endchar
        </CharString>
        <CharString name="agrave">
          -42 callgsubr
          3 callgsubr
          vstem
          219 -11 -107 callgsubr
          7 340 rmoveto
          -65 callsubr
          endchar
        </CharString>
        <CharString name="amacron">
          -42 callgsubr
          113 95 3 callgsubr
          vstem
          219 -11 -107 callgsubr
          -60 213 -64 callsubr
        </CharString>
        <CharString name="ampersand">
          124 -11 93 258 65 -44 -21 265 91 0 -20 hstemhm
          30 114 -76 113 59 109 139 109 -40 101 hintmask 1100110110000000
          435 696 rmoveto
          -113 -82 -60 -128 -41 10 -29 18 -33 hvcurveto
          hintmask 1010101101000000
          -134 -52 -66 -71 -125 vvcurveto
          -97 45 -71 154 92 74 39 62 59 vhcurveto
          79 -101 75 65 -86 104 34 44 47 91 17 63 rlinecurve
          -101 hlineto
          -10 -39 -26 -61 -18 -27 -91 124 rcurveline
          hintmask 1011010110000000
          136 53 49 54 98 vvcurveto
          97 -58 41 -104 vhcurveto
          -148 -614 rmoveto
          hintmask 1011001110000000
          -66 -40 25 62 73 28 56 99 42 hvcurveto
          130 -183 rlineto
          -42 -34 -62 -33 -55 hhcurveto
          62 424 rmoveto
          57 28 42 56 36 19 -20 -36 -59 -24 -34 -91 -42 vhcurveto
          -15 22 -9 27 43 vvcurveto
          endchar
        </CharString>
        <CharString name="aogonek">
          2 -210 96 103 93 -68 -20 425 92 hstemhm
          84 110 67 117 hintmask 10111100
          438 -110 rmoveto
          -50 callgsubr
          28 52 52 26 18 vhcurveto
          9 1 rlineto
          -61 callgsubr
          75 324 rlineto
          0 -161 29 -69 -176 -77 -210 -145 vhcurveto
          hintmask 11011100
          -98 39 -69 96 82 72 100 0 vhcurveto
          -4 -16 -8 -53 -3 -16 rrcurveto
          -38 -30 -59 -60 -53 -57 callsubr
          -87 619 rmoveto
          35 68 -15 0 hvcurveto
          -51 -215 rlineto
          0 -86 -107 -51 -47 -14 27 47 106 49 157 97 vhcurveto
          endchar
        </CharString>
        <CharString name="approxequal">
          46 62 98 -47 98 56 98 -47 98 hstemhm
          hintmask 10100000
          544 406 rmoveto
          0 -64 -41 -39 vhcurveto
          hintmask 10010000
          -35 callsubr
          -9 -118 rmoveto
          0 -64 -41 -39 vhcurveto
          hintmask 01100000
          -35 callsubr
          endchar
        </CharString>
        <CharString name="aring">
          -42 callgsubr
          44 66 73 76 3 callgsubr
          140 60 73 60 vstem
          219 -11 -107 callgsubr
          -6 240 -93 callsubr
          endchar
        </CharString>
        <CharString name="aringacute">
          -42 callgsubr
          24 66 73 76 33 -21 3 callgsubr
          125 60 73 60 vstem
          356 762 rmoveto
          249 82 -10 105 -248 -92 rlineto
          -128 -868 -107 callgsubr
          -21 220 -93 callsubr
          endchar
        </CharString>
        <CharString name="asciicircum">
          46 444 316 rmoveto
          114 hlineto
          -192 344 rlineto
          -94 hlineto
          -190 -344 rlineto
          114 hlineto
          124 238 rlineto
          endchar
        </CharString>
        <CharString name="asciitilde">
          46 181 98 -47 98 hstemhm
          hintmask 10000000
          546 320 rmoveto
          0 -63 -41 -39 vhcurveto
          hintmask 01000000
          -47 -99 51 -55 hhcurveto
          -57 -63 -52 0 hvcurveto
          10 -88 rlineto
          0 62 42 45 vhcurveto
          hintmask 10000000
          40 108 -51 54 hhcurveto
          58 55 52 0 hvcurveto
          endchar
        </CharString>
        <CharString name="asterisk">
          -95 504 64 145 -20 hstem
          503 504 rmoveto
          64 -126 vlineto
          39 124 -64 21 -40 -123 -103 75 -39 -54 103 -74 -106 -79 40 -51 105 79 41 -123 62 19 -39 122 rlineto
          endchar
        </CharString>
        <CharString name="at">
          434 -204 92 101 93 550 92 hstem
          97 102 116 109 461 99 vstem
          637 724 -98 callsubr
        </CharString>
        <CharString name="at.cap">
          394 -119 92 101 93 550 92 hstem
          96 102 116 109 461 99 vstem
          636 809 -98 callsubr
        </CharString>
        <CharString name="atilde">
          -42 callgsubr
          89 -10 callsubr
          84 110 hintmask 11101000
          219 -11 -107 callgsubr
          252 317 -56 callsubr
          hintmask 11011000
          -95 callgsubr
          hintmask 11101000
          -81 callsubr
          endchar
        </CharString>
        <CharString name="b">
          1 -10 92 336 93 0 -20 217 -20 20 0 hstem
          221 109 105 -3 callsubr
          403 511 rmoveto
          -67 -66 -62 0 hvcurveto
          60 259 rlineto
          -109 hlineto
          -158 -689 rlineto
          0 129 -29 96 171 87 186 177 82 -30 76 -113 vhcurveto
          -116 -429 rmoveto
          -44 -55 11 0 hvcurveto
          60 260 rlineto
          0 71 65 52 55 9 -37 -39 -75 -38 -185 -110 vhcurveto
          endchar
        </CharString>
        <CharString name="backslash">
          -55 21 -21 698 -20 hstem
          432 4 rmoveto
          -131 698 -114 -4 132 -698 rlineto
          endchar
        </CharString>
        <CharString name="bar">
          -189 -194 -21 923 -20 hstem
          165 108 vstem
          165 -215 rmoveto
          108 923 -108 hlineto
          endchar
        </CharString>
        <CharString name="braceleft">
          -215 -130 94 698 94 hstemhm
          234 74 -74 207 hintmask 11100000
          250 220 -82 callsubr
        </CharString>
        <CharString name="braceleft.cap">
          -215 -100 94 698 94 hstemhm
          241 74 -74 207 hintmask 11100000
          257 250 -82 callsubr
        </CharString>
        <CharString name="braceright">
          -216 -133 94 698 94 hstemhm
          1 207 -74 74 hintmask 11010000
          192 403 -81 callgsubr
        </CharString>
        <CharString name="braceright.cap">
          -216 -103 94 698 94 hstemhm
          8 207 -74 74 hintmask 11010000
          199 433 -81 callgsubr
        </CharString>
        <CharString name="bracketleft">
          -255 -122 93 683 93 hstem
          205 90 vstem
          205 747 -29 callgsubr
        </CharString>
        <CharString name="bracketleft.cap">
          -255 -92 93 683 93 hstem
          211 90 vstem
          211 777 -29 callgsubr
        </CharString>
        <CharString name="bracketright">
          -256 -122 93 683 93 hstem
          108 90 vstem
          198 -122 -30 callsubr
        </CharString>
        <CharString name="bracketright.cap">
          -256 -92 93 683 93 hstem
          115 90 vstem
          205 -92 -30 callsubr
        </CharString>
        <CharString name="breve">
          -62 591 90 hstem
          222 97 128 97 vstem
          222 739 -96 callgsubr
        </CharString>
        <CharString name="breve.cap">
          -62 788 86 hstem
          272 98 114 98 vstem
          272 925 rmoveto
          -92 callsubr
          endchar
        </CharString>
        <CharString name="brokenbar">
          -187 -194 -21 923 -20 hstem
          166 109 vstem
          166 708 rmoveto
          -373 109 373 vlineto
          -109 -544 rmoveto
          -379 109 379 vlineto
          endchar
        </CharString>
        <CharString name="bullet">
          -44 124 -21 282 -20 hstem
          166 250 vstem
          166 103 rmoveto
          250 282 -250 hlineto
          endchar
        </CharString>
        <CharString name="c">
          9 callgsubr
          hstem
          86 111 -93 callgsubr
          endchar
        </CharString>
        <CharString name="cacute">
          9 callgsubr
          86 -21 hstem
          86 111 -93 callgsubr
          -68 74 -89 callgsubr
          endchar
        </CharString>
        <CharString name="caron">
          277 601 -36 callsubr
          hstem
          405 138 12 163 vstem
          555 580 -14 callgsubr
        </CharString>
        <CharString name="caron.cap">
          -62 783 145 hstem
          366 42 vstem
          585 928 -87 callgsubr
          endchar
        </CharString>
        <CharString name="ccaron">
          -107 -11 94 -94 100 321 100 -93 94 90 -36 callsubr
          hstemhm
          86 111 -94 108 43 138 12 163 hintmask 0110110111000000
          404 580 -84 callsubr
          hintmask 0101110111000000
          11 -69 rmoveto
          hintmask 1010111011000000
          -176 -86 -165 -193 -105 61 -59 99 68 71 23 0 hvcurveto
          8 82 rlineto
          0 -67 -11 -42 -63 -24 33 60 vhcurveto
          hintmask 0101110111000000
          -14 callsubr
        </CharString>
        <CharString name="ccedilla">
          -106 -10 callgsubr
          27 94 -78 -20 425 100 -93 94 hstemhm
          87 111 -94 108 2 46 -7 87 hintmask 1101010110000000
          349 511 rmoveto
          hintmask 1101101010000000
          -176 -86 -165 -193 -92 46 -57 78 -12 hvcurveto
          -19 -83 rlineto
          29 hlineto
          hintmask 1101100101000000
          -97 callsubr
          -50 callsubr
          hintmask 1110100110000000
          7 27 rlineto
          65 2 66 21 0 vvcurveto
          8 82 rlineto
          0 -67 -11 -42 vhcurveto
          hintmask 1101101010000000
          -63 -24 33 60 hvcurveto
          hintmask 1101010110000000
          -14 callsubr
        </CharString>
        <CharString name="ccircumflex">
          9 callgsubr
          90 -36 callsubr
          hstem
          86 111 12 106 71 134 -93 callgsubr
          -139 69 rmoveto
          106 hlineto
          -86 callsubr
        </CharString>
        <CharString name="cdotaccent">
          9 callgsubr
          hstem
          86 111 -93 callgsubr
          -33 81 -44 callgsubr
        </CharString>
        <CharString name="cedilla">
          277 -10 callgsubr
          43 -20 hstemhm
          377 46 -7 87 hintmask 11101000
          503 -124 rmoveto
          -50 callsubr
          hintmask 11110000
          12 43 rlineto
          -46 hlineto
          -22 -96 rlineto
          29 hlineto
          hintmask 11101000
          -97 callsubr
          endchar
        </CharString>
        <CharString name="cent">
          46 254 87 vstem
          254 -77 rmoveto
          87 hlineto
          26 115 rlineto
          39 2 46 6 0 vvcurveto
          18 92 rlineto
          0 -77 -5 -38 -98 -10 43 73 18 vhcurveto
          80 20 39 38 84 hhcurveto
          36 76 -5 0 hvcurveto
          27 92 rlineto
          0 -41 6 -38 4 vhcurveto
          27 111 rlineto
          -88 hlineto
          -25 -109 -105 -6 -82 -70 -35 -141 rlinecurve
          -25 -102 17 -109 126 -6 rrcurveto
          endchar
        </CharString>
        <CharString name="circumflex">
          277 601 -36 callsubr
          hstem
          367 106 71 134 vstem
          367 580 rmoveto
          106 hlineto
          -86 callsubr
        </CharString>
        <CharString name="circumflex.cap.001">
          -62 227 785 -91 callgsubr
          -63 hlineto
          endchar
        </CharString>
        <CharString name="colon">
          -351 56 110 -37 110 hintmask 01000000
          99 311 rmoveto
          -44 callsubr
          -103 -446 -9 callgsubr
          hintmask 10000000
          30 135 -63 callsubr
          endchar
        </CharString>
        <CharString name="comma">
          -335 -109 -21 265 -20 hstem
          54 -130 rmoveto
          139 265 rlineto
          -119 hlineto
          -109 -265 rlineto
          endchar
        </CharString>
        <CharString name="commaaccent">
          -353 30 99 vstem
          -63 -33 callsubr
          endchar
        </CharString>
        <CharString name="copyright">
          128 155 53 64 79 166 78 66 52 hstemhm
          151 54 99 85 -85 199 -73 79 128 55 hintmask 1111101010000000
          26 callsubr
          154 164 20 callsubr
          -162 -157 27 callsubr
          92 103 124 29 callgsubr
          -126 -124 -91 102 124 vhcurveto
          298 -77 rmoveto
          0 -37 -6 -31 vhcurveto
          hintmask 1111110110000000
          -35 -11 27 59 57 8 23 38 hvcurveto
          hintmask 1111101010000000
          32 36 -7 0 hvcurveto
          hintmask 1111110110000000
          6 72 rlineto
          0 -33 13 -46 -91 -35 -44 -114 -124 35 -41 88 50 32 16 23 callsubr
        </CharString>
        <CharString name="currency">
          46 501 14 rmoveto
          75 75 -72 71 31 57 0 70 -31 56 rlinecurve
          72 72 -75 75 -71 -72 -57 31 -69 0 -57 -31 rlinecurve
          -71 72 -75 -75 71 -72 -31 -56 0 -70 31 -57 rlinecurve
          -71 -71 75 -75 71 72 57 -32 69 0 57 32 rlinecurve
          -155 102 rmoveto
          -35 35 0 58 35 35 35 35 57 0 35 -35 35 -35 0 -58 -35 -35 -35 -35 -57 0 -35 35 rrcurveto
          endchar
        </CharString>
        <CharString name="d">
          2 -11 92 337 92 198 -20 3 callgsubr
          317 109 vstem
          620 708 rmoveto
          -109 hlineto
          -50 -217 rlineto
          -64 callgsubr
        </CharString>
        <CharString name="dagger">
          -64 -51 -21 459 110 179 -20 hstem
          263 102 vstem
          118 387 rmoveto
          145 hlineto
          -107 -459 rlineto
          100 hlineto
          109 460 147 -1 24 110 rlineto
          -145 hlineto
          41 179 rlineto
          -101 hlineto
          -42 -179 rlineto
          -146 hlineto
          endchar
        </CharString>
        <CharString name="daggerdbl">
          -37 -51 -21 178 109 173 109 179 -20 hstem
          170 100 vstem
          170 -72 rmoveto
          100 hlineto
          42 178 rlineto
          147 hlineto
          26 109 rlineto
          -147 hlineto
          42 173 146 -1 24 110 rlineto
          -145 hlineto
          42 179 rlineto
          -101 hlineto
          -42 -180 -147 1 -25 -110 rlineto
          145 hlineto
          -40 -173 -147 1 -25 -109 rlineto
          146 hlineto
          endchar
        </CharString>
        <CharString name="dcaron">
          86 -11 92 337 92 -47 -21 243 -20 43 -20 hstemhm
          84 110 317 109 50 98 hintmask 10111111
          768 685 rmoveto
          -98 hlineto
          -59 -243 4 callgsubr
          -90 266 rmoveto
          -109 hlineto
          -50 -217 rlineto
          hintmask 11011111
          -64 callgsubr
        </CharString>
        <CharString name="dcroat">
          2 0 663 -595 640 -143 -20 hstemhm
          347 294 -290 269 hintmask 01001000
          620 708 rmoveto
          -109 hlineto
          hintmask 10001000
          -11 -45 rlineto
          -131 hlineto
          hintmask 00110000
          -22 -98 rlineto
          131 hlineto
          -17 -74 rlineto
          0 -77 19 -49 -164 -87 -193 -164 -106 46 -58 90 vhcurveto
          hintmask 01001000
          79 65 79 0 hvcurveto
          hintmask 10001000
          -13 -68 rlineto
          105 hlineto
          hintmask 00110000
          131 565 rlineto
          54 hlineto
          hintmask 10001000
          23 98 rlineto
          -55 hlineto
          hintmask 01001000
          -221 -490 rmoveto
          0 -83 -92 -50 -42 -19 29 43 106 50 159 91 45 61 -14 23 callsubr
        </CharString>
        <CharString name="degree">
          46 405 62 167 62 hstem
          260 65 166 62 vstem
          260 550 rmoveto
          -87 60 -58 87 86 60 58 87 87 -60 59 -86 -87 -60 -59 -87 vhcurveto
          65 hmoveto
          49 32 35 50 49 35 -35 -49 -49 -35 -34 -49 -50 -32 34 49 vhcurveto
          endchar
        </CharString>
        <CharString name="dieresis">
          72 617 109 hstem
          219 96 102 96 vstem
          227 609 -60 callsubr
        </CharString>
        <CharString name="dieresis.cap">
          -114 268 -21 callsubr
          -90 hlineto
          -45 callsubr
          endchar
        </CharString>
        <CharString name="divide">
          46 44 -21 218 110 -30 107 hstemhm
          163 350 hintmask 11010000
          163 241 rmoveto
          350 110 -69 hlineto
          hintmask 10110000
          77 -213 vlineto
          hintmask 11010000
          -77 -68 vlineto
          120 -328 rmoveto
          108 118 -108 hlineto
          endchar
        </CharString>
        <CharString name="dollar">
          46 -119 108 217 466 hstemhm
          91 492 -294 319 hintmask 11010000
          608 640 rmoveto
          0 -31 10 -44 9 vhcurveto
          hintmask 11100000
          50 -35 callgsubr
          -73 hlineto
          -45 -107 rlineto
          2 -17 -16 1 -17 hhcurveto
          -140 -87 -87 -126 -85 38 -36 83 -36 hvcurveto
          -91 -215 rlineto
          -55 5 -54 9 0 vvcurveto
          -18 -78 rlineto
          0 38 -13 52 -10 vhcurveto
          -50 -119 rlineto
          71 hlineto
          46 110 rlineto
          -1 13 14 -1 13 hhcurveto
          148 97 82 147 82 -28 34 -93 41 hvcurveto
          86 200 rlineto
          47 -5 43 -7 0 vvcurveto
          hintmask 11010000
          -165 -357 rmoveto
          -85 -49 -38 -85 vhcurveto
          -1 hlineto
          82 193 rlineto
          43 -20 10 -16 -34 vvcurveto
          -126 264 rmoveto
          70 45 41 74 vhcurveto
          11 hlineto
          -76 -181 rlineto
          -43 20 -11 16 34 vvcurveto
          endchar
        </CharString>
        <CharString name="dotaccent">
          -272 213 592 -44 callgsubr
        </CharString>
        <CharString name="dotaccent.cap">
          -272 219 -21 499 -20 103 118 hstem
          255 94 vstem
          255 780 -34 callgsubr
          endchar
        </CharString>
        <CharString name="dotlessi">
          -286 -11 callsubr
          -4 callsubr
          vstem
          60 hmoveto
          17 callgsubr
        </CharString>
        <CharString name="dotlessj">
          -286 -32 callsubr
          endchar
        </CharString>
        <CharString name="e">
          -66 callgsubr
          hstem
          85 109 158 5 57 107 vstem
          277 82 -106 callgsubr
          endchar
        </CharString>
        <CharString name="eacute">
          -66 callgsubr
          87 -21 hstem
          85 109 158 5 57 107 vstem
          277 82 -106 callgsubr
          30 294 -89 callgsubr
          endchar
        </CharString>
        <CharString name="ebreve">
          -66 callgsubr
          81 90 hstemhm
          85 109 62 97 -1 5 57 107 -40 97 hintmask 1111101100000000
          277 82 -106 callgsubr
          hintmask 1111110010000000
          -4 448 -96 callgsubr
        </CharString>
        <CharString name="ecaron">
          -66 callgsubr
          91 -36 callsubr
          hstemhm
          85 109 61 138 -41 5 48 163 -154 107 hintmask 1111110101000000
          277 82 -106 callgsubr
          145 289 rmoveto
          163 165 rlineto
          -106 hlineto
          -69 -76 -39 76 rlineto
          hintmask 1111111010000000
          -99 hlineto
          83 -165 rlineto
          endchar
        </CharString>
        <CharString name="ecircumflex">
          -44 82 498 -207 281 -144 235 hstemhm
          85 443 -213 47 -5 85 hintmask 10001000
          200 -4 callgsubr
          hintmask 01001000
          71 74 rlineto
          hintmask 10010000
          35 -74 rlineto
          107 hlineto
          hintmask 00100100
          -86 165 rlineto
          hintmask 00101000
          -80 hlineto
          hintmask 10001000
          -85 -663 rmoveto
          -72 callgsubr
          hvcurveto
          42 hlineto
          hintmask 01001000
          190 89 37 127 hvcurveto
          hintmask 00100100
          98 -64 39 -100 vhcurveto
          hintmask 10010000
          -192 -80 -182 -177 -111 55 -51 107 93 91 28 0 hvcurveto
          hintmask 10000100
          11 82 rlineto
          0 -95 -17 -70 vhcurveto
          -64 209 rmoveto
          82 22 44 49 73 hhcurveto
          39 23 -13 -37 -61 -44 -20 -110 hvcurveto
          endchar
        </CharString>
        <CharString name="edieresis">
          -44 209 517 -353 236 0 117 hstemhm
          327 225 -195 70 94 3 hintmask 00110000
          229 -12 callsubr
          hintmask 00101100
          -18 callgsubr
          hintmask 00110000
          12 callgsubr
          hintmask 00101100
          -176 -644 rmoveto
          -47 -36 24 49 hvcurveto
          hintmask 10010000
          17 2 22 4 15 vhcurveto
          42 hlineto
          hintmask 01001100
          190 89 37 127 98 -64 39 -100 -192 -80 -182 -177 -111 55 -51 107 93 91 28 0 hvcurveto
          11 82 rlineto
          0 -95 -17 -70 vhcurveto
          -64 209 rmoveto
          82 22 44 49 73 hhcurveto
          39 23 -13 -37 -61 -44 -20 -110 hvcurveto
          endchar
        </CharString>
        <CharString name="edotaccent">
          -66 callgsubr
          hstem
          85 109 158 5 57 107 vstem
          277 82 -106 callgsubr
          60 301 -44 callgsubr
        </CharString>
        <CharString name="egrave">
          -66 callgsubr
          hstem
          85 109 158 5 57 107 vstem
          277 82 -106 callgsubr
          468 vmoveto
          -65 callsubr
          endchar
        </CharString>
        <CharString name="eight">
          46 -13 96 206 93 194 96 0 -20 hstemhm
          65 121 -31 114 187 117 -54 119 hintmask 11010110
          441 672 rmoveto
          -191 -95 -115 -110 -37 4 -27 51 -41 hvcurveto
          hintmask 11011010
          -63 -34 -82 -66 -97 vvcurveto
          hintmask 11010110
          -107 66 -51 138 195 109 118 113 45 -10 46 -57 33 vhcurveto
          hintmask 11101001
          82 41 50 59 97 vvcurveto
          74 -63 59 -134 vhcurveto
          -146 -589 rmoveto
          -77 -32 26 56 67 56 39 56 18 hvcurveto
          93 hlineto
          hintmask 11101010
          47 -16 18 -18 -44 vvcurveto
          -55 -56 -73 -105 vhcurveto
          121 493 rmoveto
          hintmask 11100101
          73 30 -31 -47 -53 -61 -44 -44 -19 hvcurveto
          -93 hlineto
          -41 22 -11 18 36 vvcurveto
          57 52 61 95 vhcurveto
          endchar
        </CharString>
        <CharString name="eight.dnom">
          -110 71 190 71 hstem
          13 92 67 90 vstem
          195 222 -104 callgsubr
        </CharString>
        <CharString name="eight.numr">
          368 71 190 71 hstem
          121 92 67 90 vstem
          303 700 -104 callgsubr
        </CharString>
        <CharString name="eight.pnum">
          -31 -10 102 120 95 107 95 hstem
          44 124 215 118 vstem
          363 509 rmoveto
          -169 -81 -80 -81 -19 6 -33 49 -32 hvcurveto
          -70 -29 -54 -51 -81 vvcurveto
          -65 67 -48 123 204 63 89 91 31 -14 34 -48 29 vhcurveto
          68 25 42 46 64 vvcurveto
          60 -61 50 -125 vhcurveto
          -103 -417 rmoveto
          -69 -23 18 25 38 28 30 49 9 hvcurveto
          88 hlineto
          34 -7 16 -12 -22 vvcurveto
          -41 -25 -38 -98 vhcurveto
          78 322 rmoveto
          66 22 -16 -23 -34 -23 -20 -46 -14 hvcurveto
          -88 hlineto
          -32 11 -6 13 16 vvcurveto
          19 5 48 102 vhcurveto
          endchar
        </CharString>
        <CharString name="eightinferior">
          -110 71 190 71 hstem
          12 92 67 90 vstem
          194 222 -104 callgsubr
        </CharString>
        <CharString name="eightsuperior">
          468 71 190 71 hstem
          146 92 67 90 vstem
          328 800 -104 callgsubr
        </CharString>
        <CharString name="ellipsis">
          111 55 110 123 110 123 110 cntrmask 11100000
          25 hmoveto
          -44 callsubr
          203 -135 rmoveto
          -44 callsubr
          203 -135 rmoveto
          -44 callsubr
          endchar
        </CharString>
        <CharString name="emacron">
          -66 callgsubr
          114 95 hstem
          85 109 158 5 57 107 vstem
          277 82 -106 callgsubr
          -26 341 -64 callsubr
        </CharString>
        <CharString name="emdash">
          542 220 93 hstem
          90 313 rmoveto
          -93 1000 93 vlineto
          endchar
        </CharString>
        <CharString name="emdash.cap">
          542 250 93 hstem
          97 343 rmoveto
          -93 1000 93 vlineto
          endchar
        </CharString>
        <CharString name="endash">
          42 220 93 hstem
          90 313 rmoveto
          -93 500 93 vlineto
          endchar
        </CharString>
        <CharString name="endash.cap">
          42 250 93 hstem
          97 343 rmoveto
          -93 500 93 vlineto
          endchar
        </CharString>
        <CharString name="eng">
          -16 160 hmoveto
          83 353 rlineto
          0 72 56 45 37 15 -17 -31 3 vhcurveto
          2 -27 -5 -35 -10 -39 -60 -253 rcurveline
          -19 -81 -19 -20 -105 -54 26 -93 rcurveline
          145 66 42 51 31 128 61 256 rcurveline
          12 51 11 54 -7 50 rrcurveto
          64 -8 -36 31 -73 hhcurveto
          -54 -54 -40 -26 -31 hvcurveto
          14 55 rlineto
          -103 hlineto
          -118 -499 rlineto
          endchar
        </CharString>
        <CharString name="eogonek">
          -44 -190 96 83 93 -48 -20 195 82 131 88 hstemhm
          85 109 37 117 4 5 57 107 hintmask 1011111110000000
          408 -90 rmoveto
          -50 callgsubr
          24 39 42 28 23 vhcurveto
          9 3 7 2 0 vvcurveto
          11 82 rlineto
          hintmask 1101111110000000
          0 -95 -17 -70 -72 callgsubr
          vhcurveto
          42 hlineto
          190 89 37 127 98 -64 39 -100 -192 -80 -182 -177 -111 55 -51 107 15 15 1 1 15 hvcurveto
          -31 -31 -30 -42 -37 -57 callsubr
          -184 471 rmoveto
          82 22 44 49 73 hhcurveto
          39 23 -13 -37 -61 -44 -20 -110 hvcurveto
          endchar
        </CharString>
        <CharString name="equal">
          46 103 98 100 98 hstem
          119 438 vstem
          119 301 rmoveto
          438 98 -438 hlineto
          -296 vmoveto
          438 98 -438 hlineto
          endchar
        </CharString>
        <CharString name="eth">
          9 -9 0 444 0 hstem
          88 109 270 96 vstem
          384 564 rmoveto
          57 -29 40 -47 -14 -81 rrcurveto
          0 -61 28 -67 -133 -100 -98 -138 -24 vhcurveto
          -108 -24 52 -100 138 hhcurveto
          170 87 116 248 60 hvcurveto
          31 126 -26 93 -82 60 67 45 rcurveline
          -36 61 -101 -68 -43 18 -52 11 -61 7 rlinecurve
          -37 -95 24 -5 27 -7 26 -7 rlinecurve
          -64 -42 38 -60 rlineto
          47 -156 rmoveto
          66 54 -26 -2 2 hvcurveto
          -138 -34 -56 -75 -82 hhcurveto
          -76 -16 43 62 12 hvcurveto
          78 11 52 58 67 hhcurveto
          endchar
        </CharString>
        <CharString name="exclam">
          -340 0 135 565 -20 hstem
          33 110 vstem
          92 246 rmoveto
          101 hlineto
          113 454 rlineto
          -114 hlineto
          -159 -700 -9 callgsubr
          31 135 -63 callsubr
          endchar
        </CharString>
        <CharString name="exclamdown">
          -346 -200 -20 585 135 hstem
          144 110 vstem
          195 254 -31 callgsubr
        </CharString>
        <CharString name="exclamdown.cap">
          -340 -15 -20 585 135 hstem
          189 110 vstem
          240 439 -31 callgsubr
        </CharString>
        <CharString name="f">
          -194 -195 -21 623 93 126 93 hstem
          202 108 vstem
          283 407 rmoveto
          115 hlineto
          23 93 rlineto
          -118 hlineto
          7 29 rlineto
          58 15 14 39 42 hhcurveto
          31 37 -7 0 hvcurveto
          20 81 rlineto
          0 -48 19 -42 -104 -42 -54 -135 -31 vhcurveto
          -7 -30 rlineto
          -49 hlineto
          -22 -94 rlineto
          50 hlineto
          -145 -622 rlineto
          97 hlineto
          62 216 rlineto
          endchar
        </CharString>
        <CharString name="five">
          46 -11 96 235 96 149 96 hstem
          250 67 127 114 vstem
          250 661 rmoveto
          -108 -353 82 -18 rlineto
          0 68 30 59 65 28 -26 -54 -84 -70 -71 -92 -77 -114 29 0 vhcurveto
          -25 -86 rlineto
          0 114 -39 110 152 116 115 158 109 -66 45 -107 -53 -80 -36 0 vhcurveto
          65 185 rlineto
          297 hlineto
          22 96 rlineto
          endchar
        </CharString>
        <CharString name="five.dnom">
          -108 9 callsubr
          36 108 13 93 vstem
          92 212 -99 callsubr
        </CharString>
        <CharString name="five.numr">
          370 9 callsubr
          151 108 13 93 vstem
          207 690 -99 callsubr
        </CharString>
        <CharString name="five.pnum">
          -54 -9 99 135 94 -73 -21 hstem
          81 126 161 116 vstem
          171 500 rmoveto
          -90 -282 80 -18 rlineto
          0 74 25 47 65 21 -18 -33 -53 -48 -31 -70 -72 -123 28 0 vhcurveto
          -35 -98 rlineto
          0 133 -29 83 163 85 80 118 98 -69 32 -101 -50 -57 -21 0 vhcurveto
          38 96 rlineto
          269 hlineto
          26 106 rlineto
          endchar
        </CharString>
        <CharString name="fiveinferior">
          -108 9 callsubr
          36 108 13 93 vstem
          92 212 -99 callsubr
        </CharString>
        <CharString name="fivesuperior">
          470 9 callsubr
          175 108 13 93 vstem
          231 790 -99 callsubr
        </CharString>
        <CharString name="florin">
          46 -243 95 516 101 129 101 -12 -20 hstemhm
          322 102 hintmask 11101000
          395 368 rmoveto
          143 hlineto
          24 101 rlineto
          -143 hlineto
          5 23 rlineto
          64 13 20 42 49 hhcurveto
          29 64 -3 0 hvcurveto
          hintmask 11011000
          22 92 rlineto
          hintmask 11101000
          5 -25 -55 7 -37 hhcurveto
          -98 -44 -47 -149 -40 hvcurveto
          -9 -34 rlineto
          -96 hlineto
          -22 -101 rlineto
          94 hlineto
          -102 -431 rlineto
          -63 -15 -25 -22 -34 hhcurveto
          -27 -45 3 0 hvcurveto
          -20 -87 rlineto
          0 51 -11 32 98 57 39 139 33 vhcurveto
          endchar
        </CharString>
        <CharString name="four">
          46 117 93 hstem
          92 119 127 110 vstem
          338 -4 -9 callgsubr
          28 121 rlineto
          68 hlineto
          22 93 rlineto
          -69 hlineto
          45 194 -63 callsubr
          -45 -194 rlineto
          -176 hlineto
          295 450 rlineto
          -121 hlineto
          -293 -461 -19 -82 rlineto
          293 hlineto
          endchar
        </CharString>
        <CharString name="four.dnom">
          -79 -16 callgsubr
          hstem
          137 87 vstem
          137 -100 -38 callgsubr
          -94 callgsubr
        </CharString>
        <CharString name="four.numr">
          399 -16 callgsubr
          hstem
          242 87 vstem
          242 378 -38 callgsubr
          -94 callgsubr
        </CharString>
        <CharString name="four.pnum">
          -50 21 -21 91 98 311 -20 hstem
          277 -3 callsubr
          277 hmoveto
          -3 callgsubr
          23 91 rlineto
          62 hlineto
          24 98 rlineto
          -61 hlineto
          29 -35 callgsubr
          -112 hlineto
          -28 -117 rlineto
          -136 hlineto
          230 311 rlineto
          -129 hlineto
          -236 -325 -22 -84 rlineto
          268 hlineto
          endchar
        </CharString>
        <CharString name="fourinferior">
          -79 -16 callgsubr
          hstem
          135 87 vstem
          135 -100 -38 callgsubr
          -94 callgsubr
        </CharString>
        <CharString name="foursuperior">
          499 -16 callgsubr
          hstem
          265 87 vstem
          265 478 -38 callgsubr
          -94 callgsubr
        </CharString>
        <CharString name="fraction">
          -464 -8 -21 731 -20 hstem
          -156 101 328 102 vstem
          -55 -29 rmoveto
          430 695 -102 36 -429 -695 rlineto
          endchar
        </CharString>
        <CharString name="g">
          -28 callsubr
          hstem
          13 100 242 103 vstem
          -106 callsubr
          endchar
        </CharString>
        <CharString name="gbreve">
          -28 callsubr
          80 90 hstem
          13 100 129 97 16 103 9 97 vstem
          -106 callsubr
          -45 488 -96 callgsubr
        </CharString>
        <CharString name="gcircumflex">
          -28 callsubr
          90 -36 callsubr
          hstemhm
          13 100 81 106 55 103 -87 134 hintmask 1111111100000000
          -106 callsubr
          -93 329 rmoveto
          106 hlineto
          hintmask 1111111010000000
          -86 callsubr
        </CharString>
        <CharString name="gcommaaccent">
          -37 -141 101 -58 903 -792 398 hstemhm
          110 103 -74 259 hintmask 01001000
          400 805 rmoveto
          -102 -224 rlineto
          100 hlineto
          93 224 rlineto
          hintmask 10110000
          -278 -1037 rmoveto
          154 91 83 109 85 -64 27 -82 11 hvcurveto
          -68 10 -25 5 20 vvcurveto
          20 22 29 0 vhcurveto
          0 18 -5 20 130 80 94 96 26 -4 20 -5 13 vhcurveto
          71 hlineto
          21 89 -147 -6 rlineto
          0 -60 17 -50 -128 -77 -93 -105 -65 26 -35 43 -23 vhcurveto
          0 -58 -52 -44 vvcurveto
          hintmask 01001000
          -22 5 -14 13 -13 vhcurveto
          -56 -28 -70 -42 -73 vvcurveto
          hintmask 10110000
          -93 80 -41 120 vhcurveto
          61 230 rmoveto
          54 -8 27 -8 -34 vvcurveto
          -65 -72 -24 -70 -72 -28 31 37 35 43 35 32 16 vhcurveto
          16 -4 31 -5 39 -6 rrcurveto
          13 253 rmoveto
          -54 -22 26 41 51 37 53 62 56 23 -24 -44 -48 -36 -55 -66 hvcurveto
          endchar
        </CharString>
        <CharString name="gdotaccent">
          -28 callsubr
          hstem
          13 100 242 103 vstem
          -106 callsubr
          20 341 -44 callgsubr
        </CharString>
        <CharString name="germandbls">
          39 -11 92 545 93 hstemhm
          59 102 49 146 102 110 -76 110 hintmask 11110100
          161 hmoveto
          120 510 rlineto
          83 19 35 33 73 hhcurveto
          hintmask 11111000
          59 25 -20 -33 -37 -16 -16 -60 -29 hvcurveto
          -70 -34 -34 -32 -72 vvcurveto
          -46 18 -25 61 -36 vhcurveto
          57 -34 10 -10 -30 vvcurveto
          -50 -36 -41 -77 -44 -68 13 0 vhcurveto
          -23 -81 rlineto
          0 80 -24 66 vhcurveto
          hintmask 11110100
          133 79 77 120 67 -25 18 -57 36 hvcurveto
          -53 34 -12 10 22 vvcurveto
          27 24 13 63 27 vhcurveto
          68 28 26 46 71 vvcurveto
          85 -62 49 -121 -131 -70 -45 -150 -36 vhcurveto
          -123 -524 rlineto
          endchar
        </CharString>
        <CharString name="grave">
          4 312 27 callgsubr
          endchar
        </CharString>
        <CharString name="grave.cap">
          -11 354 -69 callsubr
          endchar
        </CharString>
        <CharString name="greater">
          46 32 -21 477 -20 hstem
          448 253 rmoveto
          -295 -130 rlineto
          -112 vlineto
          410 195 rlineto
          90 vlineto
          -410 192 rlineto
          -111 vlineto
          endchar
        </CharString>
        <CharString name="greaterequal">
          46 20 98 27 106 151 106 hstemhm
          129 421 -122 122 hintmask 11110000
          hintmask 11101000
          428 330 rmoveto
          -299 -79 rlineto
          -106 vlineto
          421 133 rlineto
          95 vlineto
          -421 135 rlineto
          -106 vlineto
          421 -284 rmoveto
          -421 -98 421 hlineto
          endchar
        </CharString>
        <CharString name="guillemotleft">
          -48 43 0 16 0 0 98 67 -21 114 107 -97 0 hstemhm
          77 86 -79 82 142 82 hintmask 1011101010000000
          542 424 rmoveto
          -29 callsubr
          121 75 rlineto
          -193 107 rmoveto
          hintmask 1011010110000000
          -29 callsubr
          rlineto
          hintmask 1101101010000000
          121 75 rlineto
          endchar
        </CharString>
        <CharString name="guillemotright">
          -37 5 callsubr
          151 82 vstem
          271 59 -47 callgsubr
          -264 -107 -47 callgsubr
          endchar
        </CharString>
        <CharString name="guilsinglleft">
          -272 59 0 0 98 160 107 hstem
          84 82 vstem
          318 424 rmoveto
          -29 callsubr
          121 75 rlineto
          endchar
        </CharString>
        <CharString name="guilsinglright">
          -270 5 callsubr
          vstem
          38 59 -47 callgsubr
          endchar
        </CharString>
        <CharString name="h">
          -7 21 -21 417 94 197 -5 callsubr
          168 hmoveto
          -83 callgsubr
          62 273 28 callgsubr
        </CharString>
        <CharString name="hbar">
          -7 21 -21 417 94 40 94 63 -5 callsubr
          134 551 rmoveto
          53 hlineto
          -127 -551 -46 callsubr
          -83 callgsubr
          26 116 rlineto
          132 hlineto
          23 94 rlineto
          -133 hlineto
          14 63 -80 callsubr
          -15 -63 rlineto
          -53 hlineto
          endchar
        </CharString>
        <CharString name="hcircumflex">
          -7 21 -21 417 94 197 -5 callsubr
          168 hmoveto
          -83 callgsubr
          62 273 -20 callsubr
          221 755 -91 callgsubr
          -63 hlineto
          endchar
        </CharString>
        <CharString name="hungarumlaut">
          165 527 571 -34 callsubr
        </CharString>
        <CharString name="hungarumlaut.cap">
          165 586 746 -19 callsubr
          -31 callsubr
          endchar
        </CharString>
        <CharString name="hyphen">
          -217 217 98 hstem
          97 250 vstem
          72 217 21 callgsubr
        </CharString>
        <CharString name="hyphen.cap">
          -217 247 98 hstem
          104 250 vstem
          79 247 21 callgsubr
        </CharString>
        <CharString name="i">
          -37 callgsubr
          94 117 hstem
          60 hmoveto
          -78 callgsubr
          16 74 rmoveto
          110 13 callsubr
          -110 hlineto
          endchar
        </CharString>
        <CharString name="iacute">
          -37 callgsubr
          117 -21 -4 callsubr
          vstem
          60 hmoveto
          -78 callgsubr
          12 85 -89 callgsubr
          endchar
        </CharString>
        <CharString name="ibreve">
          -37 callgsubr
          111 90 14 callsubr
          -51 97 128 97 hintmask 11110100
          60 hmoveto
          -78 callgsubr
          hintmask 11101100
          -58 239 -96 callgsubr
        </CharString>
        <CharString name="icircumflex">
          -287 601 -21 74 -20 hstem
          75 115 vstem
          75 -4 callgsubr
          72 74 34 -74 -46 callsubr
          -87 165 rlineto
          -79 hlineto
          -178 -745 rmoveto
          17 callgsubr
        </CharString>
        <CharString name="idieresis">
          -287 630 -21 117 -20 hstem
          95 98 vstem
          95 -12 callsubr
          -18 callgsubr
          12 callgsubr
          -259 -726 rmoveto
          17 callgsubr
        </CharString>
        <CharString name="igrave">
          -37 callgsubr
          -4 callsubr
          vstem
          60 hmoveto
          -78 callgsubr
          -49 259 rmoveto
          -65 callsubr
          endchar
        </CharString>
        <CharString name="imacron">
          -37 callgsubr
          144 95 -4 callsubr
          vstem
          60 hmoveto
          -78 callgsubr
          -73 132 -64 callsubr
        </CharString>
        <CharString name="infinity">
          46 121 94 154 94 hstem
          95 100 304 100 vstem
          228 121 rmoveto
          54 34 21 68 31 hvcurveto
          -64 30 36 -25 53 hhcurveto
          87 46 59 112 112 -46 59 -85 -55 -36 -26 -64 -30 hvcurveto
          64 -30 -36 26 -55 hhcurveto
          -85 -46 -59 -113 -111 46 -59 87 hvcurveto
          82 171 rmoveto
          -49 -23 -12 -28 -33 hhcurveto
          -34 -13 32 44 48 12 30 35 33 15 -35 -42 20 hvcurveto
          74 hmoveto
          42 20 15 35 33 hhcurveto
          35 12 -30 -48 -46 -13 -30 -34 -33 -15 37 40 -20 hvcurveto
          endchar
        </CharString>
        <CharString name="integral">
          46 -194 98 779 97 hstem
          292 -3 callsubr
          403 -12 rmoveto
          597 vlineto
          73 16 25 43 34 35 -4 0 vhcurveto
          3 90 rlineto
          0 -59 11 -40 -102 -41 -46 -149 vhcurveto
          -595 vlineto
          -65 -17 -21 -45 -29 -31 3 0 vhcurveto
          -4 -90 rlineto
          0 55 -11 38 85 59 42 140 vhcurveto
          endchar
        </CharString>
        <CharString name="iogonek">
          -287 8 callsubr
          27 3 callsubr
          94 117 hstemhm
          -36 116 hintmask 11011100
          140 -110 rmoveto
          0 -31 -4 -11 -12 -6 7 10 vhcurveto
          hintmask 10111100
          29 55 48 33 20 vhcurveto
          -75 callsubr
          -108 hlineto
          -114 -497 rlineto
          -37 -30 -60 -59 -53 vvcurveto
          -46 28 22 callsubr
          61 774 rmoveto
          110 13 callsubr
          -109 hlineto
          endchar
        </CharString>
        <CharString name="itilde">
          -37 callgsubr
          120 96 -50 95 14 callsubr
          hintmask 11101000
          60 hmoveto
          -78 callgsubr
          235 236 -56 callsubr
          hintmask 11011000
          -95 callgsubr
          hintmask 11101000
          -81 callsubr
          endchar
        </CharString>
        <CharString name="j">
          -287 -232 87 -66 -21 801 116 -4 callsubr
          7 108 vstem
          -32 callsubr
          15 69 -9 callgsubr
          26 116 rlineto
          -109 hlineto
          endchar
        </CharString>
        <CharString name="jcircumflex">
          -37 callgsubr
          hstemhm
          -78 138 -103 326 hintmask 11100000
          60 hmoveto
          -18 -79 -9 -10 -111 -56 rrcurveto
          hintmask 11010000
          35 -87 166 74 12 16 33 142 rlinecurve
          -75 callsubr
          -108 hlineto
          hintmask 11100000
          -91 80 rmoveto
          106 hlineto
          -86 callsubr
        </CharString>
        <CharString name="k">
          -56 21 -21 221 90 188 -20 -4 callsubr
          50 0 115 112 vstem
          168 hmoveto
          -59 callsubr
        </CharString>
        <CharString name="kcommaaccent">
          -56 21 -21 221 90 188 -20 14 callsubr
          6 99 -55 0 115 112 hintmask 11111010
          81 -33 callsubr
          -6 72 rmoveto
          hintmask 11110110
          -59 callsubr
        </CharString>
        <CharString name="l">
          -25 callsubr
          endchar
        </CharString>
        <CharString name="lacute">
          -25 callsubr
          16 66 -69 callgsubr
        </CharString>
        <CharString name="lcaron">
          -201 21 -21 463 -21 243 -20 43 -20 hstem
          61 109 213 99 vstem
          482 24 callsubr
          -363 -442 7 callsubr
        </CharString>
        <CharString name="lcommaaccent">
          -283 21 -21 708 -20 hstemhm
          51 99 -89 109 hintmask 11100000
          51 -72 -72 callsubr
          hintmask 11010000
          103 298 7 callsubr
        </CharString>
        <CharString name="less">
          46 32 -21 477 -20 hstem
          521 377 rmoveto
          111 vlineto
          -410 -192 rlineto
          -90 vlineto
          410 -195 rlineto
          112 vlineto
          -295 130 rlineto
          endchar
        </CharString>
        <CharString name="lessequal">
          46 20 98 27 106 151 106 hstemhm
          116 122 -122 421 hintmask 11101000
          537 402 rmoveto
          106 vlineto
          -421 -135 rlineto
          -95 vlineto
          421 -133 rlineto
          106 vlineto
          hintmask 11110000
          -299 79 rlineto
          hintmask 11101000
          -122 -310 rmoveto
          421 98 -421 hlineto
          endchar
        </CharString>
        <CharString name="logicalnot">
          46 131 -21 144 97 hstem
          452 98 vstem
          117 351 rmoveto
          -97 335 -144 98 241 vlineto
          endchar
        </CharString>
        <CharString name="lozenge">
          46 172 75 166 75 hstem
          281 172 rmoveto
          149 hlineto
          157 154 -157 162 rlineto
          -149 hlineto
          -158 -162 rlineto
          242 -79 rmoveto
          -20 hlineto
          -113 79 113 87 rlineto
          20 hlineto
          112 -87 rlineto
          endchar
        </CharString>
        <CharString name="lslash">
          -231 21 -21 491 -21 238 -20 hstemhm
          57 289 -262 109 hintmask 11101000
          84 hmoveto
          15 callgsubr
          75 325 112 70 rlineto
          hintmask 11110000
          -34 75 -52 -32 62 270 -80 callsubr
          -81 -349 -110 -68 35 -76 48 30 rlineto
          endchar
        </CharString>
        <CharString name="m">
          261 0 -20 458 -21 -4 callsubr
          231 109 181 109 vstem
          451 hmoveto
          57 248 rlineto
          11 43 5 54 0 vvcurveto
          0 67 72 48 36 14 -25 -43 -27 -12 -53 -6 -28 vhcurveto
          -58 -241 rlineto
          15 callgsubr
          57 248 rlineto
          7 33 12 57 39 vvcurveto
          76 -33 58 -86 -80 -80 -79 0 0 -15 79 -91 -80 -65 -76 0 vhcurveto
          11 65 rlineto
          -104 hlineto
          -115 -500 -46 callsubr
          77 334 rlineto
          0 73 83 46 40 13 -24 -41 -27 -12 -56 -6 -28 vhcurveto
          -56 -241 rlineto
          endchar
        </CharString>
        <CharString name="macron">
          -62 624 95 hstem
          222 632 -64 callsubr
        </CharString>
        <CharString name="macron.cap">
          -62 255 814 -27 callsubr
          endchar
        </CharString>
        <CharString name="minus">
          46 202 98 hstem
          121 432 vstem
          121 202 rmoveto
          432 98 -432 hlineto
          endchar
        </CharString>
        <CharString name="mu">
          46 -194 -21 215 83 -73 -21 296 -20 235 -20 hstemhm
          34 108 -21 112 139 104 hintmask 10111101
          34 -215 rmoveto
          -24 callgsubr
          49 213 rlineto
          -6 14 17 -3 19 hhcurveto
          74 68 77 0 hvcurveto
          hintmask 11011011
          -11 -66 rlineto
          104 -70 callgsubr
          -30 callgsubr
          -22 callgsubr
          -23 callsubr
          18 4 31 6 27 vhcurveto
          14 61 49 215 -80 callsubr
          -49 -215 -6 -24 -7 -29 -1 -5 rlineto
          endchar
        </CharString>
        <CharString name="multiply">
          46 54 -21 434 -20 hstem
          190 467 rmoveto
          -69 -69 150 -148 -151 -148 69 -69 149 151 148 -151 69 69 -151 148 151 149 -68 69 -149 -151 rlineto
          endchar
        </CharString>
        <CharString name="n">
          -26 callgsubr
          14 callsubr
          176 108 hintmask 11011000
          -52 callsubr
          hintmask 10111000
          -47 callsubr
          endchar
        </CharString>
        <CharString name="nacute">
          -26 callgsubr
          86 -21 14 callsubr
          176 108 hintmask 11011100
          60 hmoveto
          -75 callsubr
          104 hlineto
          -11 -66 rlineto
          hintmask 10111100
          -59 callgsubr
          125 585 -89 callgsubr
          endchar
        </CharString>
        <CharString name="ncaron">
          -26 callgsubr
          90 -36 callsubr
          14 callsubr
          100 138 -62 108 -34 163 hintmask 1101111010000000
          168 hmoveto
          77 334 rlineto
          0 73 83 47 vhcurveto
          hintmask 1011110100000000
          42 11 -24 -41 -28 -12 -55 -6 -28 hvcurveto
          -56 -241 -46 callsubr
          57 249 rlineto
          8 32 13 59 37 vvcurveto
          hintmask 1101111010000000
          -47 callsubr
          358 580 -14 callgsubr
        </CharString>
        <CharString name="ncommaaccent">
          -26 callgsubr
          14 callsubr
          34 99 43 108 hintmask 11011100
          -52 callsubr
          hintmask 10111100
          -47 callsubr
          49 -33 callsubr
          endchar
        </CharString>
        <CharString name="nine">
          46 -11 102 152 100 248 -21 hstem
          135 109 222 130 vstem
          79 11 rmoveto
          0 78 -22 74 186 163 132 274 16 vhcurveto
          171 14 -52 105 -136 hhcurveto
          -184 -95 -129 -115 -8 hvcurveto
          -129 -9 59 -55 117 hhcurveto
          56 108 31 0 hvcurveto
          -118 -30 -82 -65 -98 hhcurveto
          -78 -65 16 0 hvcurveto
          223 236 rmoveto
          -69 -31 23 70 8 hvcurveto
          83 7 70 51 76 hhcurveto
          95 23 -86 -119 -26 hvcurveto
          0 -94 -22 -59 vhcurveto
          endchar
        </CharString>
        <CharString name="nine.dnom">
          -110 10 callgsubr
          44 90 56 83 vstem
          4 -98 -101 callgsubr
        </CharString>
        <CharString name="nine.numr">
          368 10 callgsubr
          156 90 56 83 vstem
          116 380 -101 callgsubr
        </CharString>
        <CharString name="nine.pnum">
          -50 -10 98 98 90 146 88 hstem
          89 109 185 132 vstem
          37 15 rmoveto
          0 100 -25 72 194 112 159 198 94 -50 69 -120 -184 -72 -112 -93 -73 39 -46 121 50 49 16 15 35 vhcurveto
          -89 -22 -52 -40 -89 hhcurveto
          -76 -75 15 0 hvcurveto
          212 173 rmoveto
          -65 -18 20 26 38 21 62 102 75 12 -44 -38 -12 -2 -15 -2 -9 hvcurveto
          0 -61 -28 -62 vhcurveto
          endchar
        </CharString>
        <CharString name="nineinferior">
          -110 10 callgsubr
          43 90 56 83 vstem
          3 -98 -101 callgsubr
        </CharString>
        <CharString name="ninesuperior">
          468 10 callgsubr
          177 90 56 83 vstem
          137 480 -101 callgsubr
        </CharString>
        <CharString name="notequal">
          46 -10 564 -253 98 hstemhm
          414 86 hintmask 01100000
          119 301 rmoveto
          184 hlineto
          -44 -100 rlineto
          -140 -98 97 hlineto
          hintmask 10100000
          -49 -113 85 -34 64 147 rlineto
          241 98 -198 hlineto
          hintmask 01100000
          44 100 rlineto
          154 98 -111 hlineto
          54 121 rlineto
          hintmask 10100000
          -86 34 rlineto
          hintmask 01100000
          -68 -155 rlineto
          -227 hlineto
          endchar
        </CharString>
        <CharString name="ntilde">
          -26 callgsubr
          89 96 -50 95 14 callsubr
          176 108 hintmask 11010110
          60 hmoveto
          -75 callsubr
          104 hlineto
          -11 -66 rlineto
          hintmask 10110110
          -59 callgsubr
          399 736 -56 callsubr
          hintmask 11001110
          -95 callgsubr
          hintmask 11010110
          -81 callsubr
          endchar
        </CharString>
        <CharString name="numbersign">
          46 136 102 259 103 vstem
          577 171 rmoveto
          23 92 rlineto
          -103 hlineto
          34 137 rlineto
          103 hlineto
          22 91 rlineto
          -102 26 callgsubr
          -126 26 callgsubr
          -102 hlineto
          -23 -91 rlineto
          102 hlineto
          -34 -137 rlineto
          -102 hlineto
          -23 -92 rlineto
          102 24 callgsubr
          125 24 callgsubr
          -73 92 rmoveto
          -126 hlineto
          34 137 rlineto
          126 hlineto
          endchar
        </CharString>
        <CharString name="o">
          -43 callsubr
          hstem
          85 185 146 108 vstem
          337 510 rmoveto
          -105 callgsubr
          endchar
        </CharString>
        <CharString name="oacute">
          -43 callsubr
          87 -21 hstem
          85 185 146 108 vstem
          337 510 rmoveto
          -105 callgsubr
          21 504 -89 callgsubr
          endchar
        </CharString>
        <CharString name="obreve">
          -43 callsubr
          81 90 hstemhm
          85 185 -29 97 78 108 -58 97 hintmask 11110100
          337 510 rmoveto
          -105 callgsubr
          hintmask 11101010
          -29 658 -96 callgsubr
        </CharString>
        <CharString name="ocircumflex">
          -19 510 70 95 -21 hstemhm
          85 351 -106 127 hintmask 11010000
          215 -4 callgsubr
          72 74 rlineto
          hintmask 11100000
          34 -74 -46 callsubr
          hintmask 11010000
          -87 165 rlineto
          -79 hlineto
          -41 -235 rmoveto
          hintmask 11100000
          -105 callgsubr
          endchar
        </CharString>
        <CharString name="odieresis">
          -43 callsubr
          107 109 hstemhm
          85 185 -35 96 85 108 -91 96 hintmask 11101010
          337 510 rmoveto
          hintmask 11110010
          -155 -97 -175 -168 -126 67 -52 118 hvcurveto
          hintmask 11101100
          165 89 174 167 125 -68 55 -119 hvcurveto
          hintmask 11110010
          -67 -429 rmoveto
          -51 -26 31 54 123 55 129 89 hvcurveto
          hintmask 11101100
          53 26 -34 -53 hvcurveto
          hintmask 11110010
          -123 -55 -127 -91 vhcurveto
          -27 528 -60 callsubr
        </CharString>
        <CharString name="oe">
          262 -11 97 119 84 124 97 hstem
          95 106 206 111 190 100 vstem
          573 88 rmoveto
          -51 -25 20 37 -4 hvcurveto
          -2 17 2 20 6 23 285 -2 rcurveline
          24 77 12 40 1 36 -2 29 rlinecurve
          81 -6 -51 44 -95 hhcurveto
          -68 -54 -22 -49 -43 hvcurveto
          47 -21 -43 24 -74 hhcurveto
          -169 -63 -108 -149 -37 hvcurveto
          -12 -51 -5 -48 6 -47 rrcurveto
          -75 8 47 -43 103 hhcurveto
          74 51 22 42 41 hvcurveto
          -42 21 44 -22 70 hhcurveto
          90 95 23 0 hvcurveto
          19 85 rlineto
          0 -105 -9 -69 vhcurveto
          -310 -2 rmoveto
          -50 -21 19 35 -4 hvcurveto
          -4 29 6 38 11 46 rrcurveto
          100 23 36 60 82 hhcurveto
          50 22 -21 -44 3 hvcurveto
          3 -31 -6 -32 -7 -27 rrcurveto
          -85 -22 -25 -87 -97 hhcurveto
          255 203 rmoveto
          83 19 40 39 70 hhcurveto
          46 21 -14 -36 3 hvcurveto
          2 -19 -4 -24 -7 -31 rrcurveto
          endchar
        </CharString>
        <CharString name="ogonek">
          -74 8 callsubr
          hstem
          162 117 vstem
          339 -110 rmoveto
          -50 callgsubr
          29 57 55 25 17 vhcurveto
          -88 10 rlineto
          -35 -25 -76 -69 -59 -57 callsubr
          endchar
        </CharString>
        <CharString name="ograve">
          -43 callsubr
          hstem
          85 185 146 108 vstem
          337 510 rmoveto
          -105 callgsubr
          19 678 rmoveto
          -65 callsubr
          endchar
        </CharString>
        <CharString name="ohungarumlaut">
          -43 callsubr
          hstem
          85 185 146 108 vstem
          337 510 rmoveto
          -105 callgsubr
          189 490 -34 callsubr
        </CharString>
        <CharString name="omacron">
          -43 callsubr
          114 95 hstem
          85 185 146 108 vstem
          337 510 rmoveto
          -105 callgsubr
          -37 551 -64 callsubr
        </CharString>
        <CharString name="one">
          46 528 132 hstem
          210 30 52 -3 callsubr
          210 520 rmoveto
          30 -88 174 96 -122 -528 rlineto
          -3 callgsubr
          152 660 rlineto
          -97 hlineto
          endchar
        </CharString>
        <CharString name="one.dnom">
          -79 -21 312 -20 hstem
          156 112 vstem
          66 139 -79 callsubr
          endchar
        </CharString>
        <CharString name="one.numr">
          399 -21 312 -20 hstem
          261 112 vstem
          171 617 -79 callsubr
          endchar
        </CharString>
        <CharString name="one.pnum">
          -179 -11 callsubr
          hstem
          314 -3 callsubr
          91 377 rmoveto
          31 -93 151 82 -91 -366 rlineto
          119 hlineto
          124 500 -67 callsubr
          endchar
        </CharString>
        <CharString name="onehalf">
          120 0 79 -76 -21 256 84 177 20 callgsubr
          166 101 -58 95 hintmask 0111111110000000
          -48 callsubr
          hintmask 1011111101000000
          514 -18 -100 callgsubr
        </CharString>
        <CharString name="oneinferior">
          -79 -21 312 -20 hstem
          163 112 vstem
          73 139 -79 callsubr
          endchar
        </CharString>
        <CharString name="onequarter">
          103 3 -21 39 -16 callgsubr
          207 20 callgsubr
          133 87 -54 101 hintmask 1011111110100000
          -48 callsubr
          hintmask 0111111111000000
          397 -18 -38 callgsubr
          hintmask 0111111110100000
          -94 callgsubr
        </CharString>
        <CharString name="onesuperior">
          499 -21 312 -20 hstem
          285 112 vstem
          195 -7 callgsubr
          endchar
        </CharString>
        <CharString name="ordfeminine">
          -179 424 551 rmoveto
          86 20 -45 22 -84 hhcurveto
          -62 -76 -21 0 hvcurveto
          -11 -63 rlineto
          0 84 7 42 30 12 -8 -18 -4 vhcurveto
          -6 -23 -74 -4 -82 -4 -37 -29 -14 -61 rlinecurve
          -62 -15 26 -40 62 hhcurveto
          49 55 29 0 hvcurveto
          -19 10 11 -11 80 hhcurveto
          17 68 -7 1 -9 4 -4 6 rlinecurve
          -81 63 rmoveto
          -12 -52 rlineto
          0 -37 -16 -26 -22 -9 9 22 4 vhcurveto
          5 22 14 9 25 2 rrcurveto
          endchar
        </CharString>
        <CharString name="ordmasculine">
          -172 321 659 rmoveto
          -100 -60 -41 -116 -28 hvcurveto
          -5 -20 -3 -19 -1 -16 rrcurveto
          -72 -3 45 -43 78 hhcurveto
          108 58 43 124 29 hvcurveto
          7 28 4 30 -6 31 rrcurveto
          51 -9 -58 20 -56 hhcurveto
          -58 -247 rmoveto
          -32 -12 13 30 15 3 15 5 19 hvcurveto
          58 14 22 20 41 hhcurveto
          32 15 -12 -30 -13 -2 -13 -4 -14 hvcurveto
          -67 -18 -22 -21 -42 hhcurveto
          endchar
        </CharString>
        <CharString name="oslash">
          -19 -83 252 89 -21 hstemhm
          117 162 -8 277 hintmask 11100000
          338 512 rmoveto
          -155 -97 -175 -168 -62 16 -44 31 -29 hvcurveto
          -75 -117 59 -26 69 112 rlineto
          hintmask 11010000
          -8 24 28 -4 33 hhcurveto
          165 89 174 167 62 -17 44 -31 30 hvcurveto
          71 111 -59 26 -65 -106 rlineto
          8 -25 -29 5 -32 hhcurveto
          -67 -429 rmoveto
          -13 -11 2 3 -9 hvcurveto
          91 149 83 130 rlineto
          3 -10 2 -12 -12 vvcurveto
          -123 -55 -127 -91 vhcurveto
          -73 52 rmoveto
          -3 10 -1 11 6 callsubr
          hintmask 11100000
          -93 -151 rlineto
          endchar
        </CharString>
        <CharString name="oslashacute">
          -19 -83 250 91 -21 360 -21 hstemhm
          118 162 -10 280 hintmask 11110000
          337 510 rmoveto
          -155 -97 -175 -168 -63 16 -44 31 -29 hvcurveto
          -73 -114 59 -26 67 110 rlineto
          hintmask 11101000
          -8 24 29 -4 32 hhcurveto
          165 89 174 167 61 -17 44 -30 30 hvcurveto
          73 114 -60 26 -67 -108 rlineto
          8 -24 -30 5 -32 hhcurveto
          -52 75 -89 callgsubr
          -79 -538 rmoveto
          -3 9 -1 12 6 callsubr
          hintmask 11110000
          -91 -149 rlineto
          hintmask 11101000
          -10 -182 rmoveto
          -12 -11 1 4 -9 hvcurveto
          93 151 81 126 rlineto
          2 -10 2 -10 -12 vvcurveto
          -123 -55 -127 -91 vhcurveto
          endchar
        </CharString>
        <CharString name="otilde">
          -43 callsubr
          90 -10 callsubr
          85 185 146 108 hintmask 11101100
          337 510 rmoveto
          -105 callgsubr
          276 655 -56 callsubr
          hintmask 11011100
          -95 callgsubr
          hintmask 11101100
          -81 callsubr
          endchar
        </CharString>
        <CharString name="p">
          1 -215 -20 225 92 0 -20 356 93 hstem
          10 107 320 110 vstem
          10 -215 rmoveto
          107 hlineto
          52 224 rlineto
          0 74 -19 53 164 87 194 167 95 -42 65 -97 -73 -68 -79 0 vhcurveto
          14 68 rlineto
          -106 hlineto
          200 -82 rmoveto
          43 19 -29 -44 -102 -49 -161 -92 -45 -61 15 0 hvcurveto
          52 230 rlineto
          0 85 91 48 vhcurveto
          endchar
        </CharString>
        <CharString name="paragraph">
          47 21 -21 612 88 hstem
          144 296 -159 86 9 88 vstem
          376 hmoveto
          88 hlineto
          146 612 rlineto
          49 hlineto
          21 88 rlineto
          -312 hlineto
          -135 -91 -120 -115 -76 36 -70 105 -2 hvcurveto
          -76 -317 rlineto
          89 hlineto
          146 612 rlineto
          80 hlineto
          endchar
        </CharString>
        <CharString name="parenleft">
          -283 64 113 -87 103 103 101 hintmask 10100000
          296 748 -49 callsubr
        </CharString>
        <CharString name="parenleft.cap">
          -283 71 113 -87 103 103 101 hintmask 10100000
          303 778 -49 callsubr
        </CharString>
        <CharString name="parenright">
          -282 -20 101 103 103 -87 113 hintmask 10100000
          81 -118 -49 callgsubr
        </CharString>
        <CharString name="parenright.cap">
          -281 -12 101 103 103 -87 113 hintmask 10100000
          89 -88 -49 callgsubr
        </CharString>
        <CharString name="partialdiff">
          46 -9 93 257 94 191 93 hstem
          118 115 243 116 vstem
          171 587 rmoveto
          0 83 39 73 108 34 -61 -157 7 vhcurveto
          0 -70 27 -73 -137 -78 -82 -138 -152 79 -72 150 175 70 118 244 252 -73 114 -174 -93 -85 -47 0 vhcurveto
          179 -331 rmoveto
          74 56 -25 0 -161 -42 -71 -87 -79 -35 49 82 73 34 53 79 hvcurveto
          endchar
        </CharString>
        <CharString name="percent">
          46 0 68 -64 -21 236 67 129 68 151 67 14 -20 hstemhm
          156 82 0 68 0 82 -53 82 0 67 0 82 hintmask 0111100100100000
          291 634 rmoveto
          -26 -14 -23 -52 -13 hvcurveto
          -51 -12 1 -25 26 hhcurveto
          27 13 24 52 13 hvcurveto
          52 13 -2 23 -26 hhcurveto
          -163 -628 rmoveto
          67 -23 396 709 rlineto
          hintmask 1011011010100000
          -67 23 rlineto
          -368 -156 rmoveto
          hintmask 1011101010100000
          97 24 54 45 74 hhcurveto
          72 32 -45 -97 -24 hvcurveto
          -97 -24 -55 -47 -72 hhcurveto
          -73 -32 47 97 24 hvcurveto
          hintmask 1011101001010000
          179 -415 rmoveto
          -97 -24 31 -47 73 hhcurveto
          73 54 47 97 24 hvcurveto
          97 24 -31 45 -73 hhcurveto
          -73 -54 -45 -97 -24 hvcurveto
          82 hmoveto
          52 12 -13 callgsubr
          14 hvcurveto
          endchar
        </CharString>
        <CharString name="period">
          -355 55 110 vstem
          25 hmoveto
          -44 callsubr
          endchar
        </CharString>
        <CharString name="periodcentered">
          -355 223 145 hstemhm
          69 125 -85 110 hintmask 11000000
          76 223 -9 callgsubr
          hintmask 10100000
          33 147 -63 callsubr
          endchar
        </CharString>
        <CharString name="periodcentered.cap">
          -354 261 145 hstemhm
          78 125 -85 110 hintmask 11000000
          85 261 -9 callgsubr
          hintmask 10100000
          33 146 -63 callsubr
          endchar
        </CharString>
        <CharString name="perthousand">
          312 292 633 rmoveto
          -26 -13 -22 -52 -13 hvcurveto
          -52 -13 2 -25 26 hhcurveto
          26 14 25 52 13 hvcurveto
          52 13 -3 22 -26 hhcurveto
          -143 -632 rmoveto
          68 -18 368 713 -68 19 rlineto
          -359 -156 rmoveto
          97 24 54 45 73 hhcurveto
          73 31 -45 -97 -24 hvcurveto
          -97 -24 -54 -47 -73 hhcurveto
          -73 -31 47 97 24 hvcurveto
          185 -415 rmoveto
          -97 -24 32 2 callgsubr
          -54 -45 -97 -24 hvcurveto
          82 hmoveto
          52 13 13 23 26 hhcurveto
          27 2 -23 -52 -13 hvcurveto
          -52 -13 -14 -24 -27 hhcurveto
          -26 -1 24 52 13 hvcurveto
          176 hmoveto
          -97 -24 31 2 callgsubr
          -53 -45 -97 -24 hvcurveto
          81 hmoveto
          52 13 -13 callgsubr
          13 hvcurveto
          endchar
        </CharString>
        <CharString name="pi">
          46 -7 92 322 93 13 -20 hstemhm
          149 109 143 108 hintmask 10111000
          401 154 rmoveto
          -131 25 -30 160 vhcurveto
          92 vlineto
          -63 -14 18 51 hvcurveto
          255 vlineto
          58 3 26 11 0 vvcurveto
          90 vlineto
          hintmask 11011000
          0 -55 -13 -64 vhcurveto
          -244 hlineto
          -84 -62 -17 0 hvcurveto
          -89 vlineto
          0 51 13 45 vhcurveto
          -31 -407 rlineto
          15 callgsubr
          27 407 rlineto
          116 hlineto
          endchar
        </CharString>
        <CharString name="plus">
          46 202 98 hstemhm
          110 455 -278 98 hintmask 11000000
          110 202 rmoveto
          hintmask 10100000
          177 -181 98 181 hlineto
          hintmask 11000000
          180 98 hlineto
          hintmask 10100000
          -180 179 -98 -179 hlineto
          hintmask 11000000
          -177 hlineto
          endchar
        </CharString>
        <CharString name="plusminus">
          46 27 98 155 98 hstem
          278 98 vstem
          101 280 rmoveto
          177 -112 98 112 180 98 -180 115 -98 -115 -177 hlineto
          -253 vmoveto
          -98 455 98 vlineto
          endchar
        </CharString>
        <CharString name="product">
          46 -151 -21 832 97 hstem
          188 112 153 -3 callsubr
          453 -172 rmoveto
          111 832 63 97 -499 -97 60 -832 112 832 153 hlineto
          endchar
        </CharString>
        <CharString name="q">
          0 -192 -21 202 93 -72 -21 429 92 hstemhm
          84 110 105 108 hintmask 10111100
          221 -11 rmoveto
          78 65 80 0 hvcurveto
          -65 -282 -46 callsubr
          159 694 rlineto
          0 -151 29 -80 -162 -89 -190 -169 -101 46 -61 91 vhcurveto
          113 429 rmoveto
          46 61 -14 0 hvcurveto
          -53 -231 rlineto
          hintmask 11011100
          0 -84 -91 -49 -43 -18 29 44 110 53 153 87 vhcurveto
          endchar
        </CharString>
        <CharString name="question">
          -90 21 -21 327 72 200 97 0 0 hstemhm
          -176 32 87 43 136 125 -85 110 -94 102 -95 104 110 115 hintmask 1110111000100000
          514 551 rmoveto
          105 -70 40 -105 -69 -89 -26 0 vhcurveto
          -11 -86 rlineto
          0 78 15 66 52 33 -10 -48 -50 -33 -30 -84 -62 vhcurveto
          hintmask 1101110001100000
          -57 -42 -33 -38 -7 -38 rrcurveto
          hintmask 1101110010100000
          -7 -36 0 -42 0 vvcurveto
          102 hlineto
          hintmask 1101110001100000
          9 40 5 25 23 29 40 30 rlinecurve
          117 86 40 41 97 vvcurveto
          -385 -551 -9 callgsubr
          hintmask 1101110100100000
          33 146 -63 callsubr
          endchar
        </CharString>
        <CharString name="questiondown">
          -93 -196 28 callsubr
          25 -15 callsubr
          25 -51 -84 callgsubr
        </CharString>
        <CharString name="questiondown.cap">
          -130 4 28 callsubr
          51 -15 callsubr
          51 149 -84 callgsubr
        </CharString>
        <CharString name="quotedbl">
          -205 466 -21 26 -21 241 -20 hstemhm
          164 94 -74 99 -63 101 -69 94 -38 101 -97 96 hintmask 0111000010000000
          hintmask 1010010000000000
          346 450 rmoveto
          hintmask 1010100100000000
          63 241 rlineto
          hintmask 0110001000000000
          -189 hlineto
          -56 -241 rlineto
          endchar
        </CharString>
        <CharString name="quotedblbase">
          -177 -155 -20 282 -21 hstem
          -87 105 91 105 vstem
          258 86 16 callsubr
          -277 hmoveto
          -58 callgsubr
          endchar
        </CharString>
        <CharString name="quotedblleft">
          -162 444 -20 282 -21 hstem
          91 105 71 105 vstem
          240 685 16 callsubr
          95 hmoveto
          -58 callgsubr
          endchar
        </CharString>
        <CharString name="quotedblright">
          -161 465 -21 241 -20 hstem
          241 105 71 -8 callsubr
          257 hmoveto
          8 callgsubr
        </CharString>
        <CharString name="quoteleft">
          -337 443 -20 282 -21 hstem
          92 105 vstem
          241 684 16 callsubr
          endchar
        </CharString>
        <CharString name="quoteright">
          -337 465 -21 241 -20 hstem
          241 -8 callsubr
          endchar
        </CharString>
        <CharString name="quotesinglbase">
          -354 -131 -21 241 -20 hstem
          81 105 vstem
          37 -152 rmoveto
          8 callgsubr
        </CharString>
        <CharString name="quotesingle">
          -366 471 -21 241 -20 hstemhm
          128 94 -38 101 hintmask 11100000
          hintmask 11010000
          222 450 rmoveto
          63 241 rlineto
          hintmask 11100000
          -101 hlineto
          -56 -241 rlineto
          endchar
        </CharString>
        <CharString name="r">
          -11 callgsubr
          -4 callsubr
          vstem
          -83 callsubr
          endchar
        </CharString>
        <CharString name="racute">
          -11 callgsubr
          86 -21 -4 callsubr
          vstem
          -83 callsubr
          19 85 -89 callgsubr
          endchar
        </CharString>
        <CharString name="radical">
          46 -133 93 483 -20 hstem
          107 345 rmoveto
          56 hlineto
          116 -478 rlineto
          174 hlineto
          221 918 -63 callsubr
          -191 -825 rlineto
          -12 hlineto
          -107 483 rlineto
          -147 hlineto
          endchar
        </CharString>
        <CharString name="rcaron">
          -11 callgsubr
          90 -36 callsubr
          -4 callsubr
          10 138 12 163 vstem
          -83 callsubr
          153 80 -14 callgsubr
        </CharString>
        <CharString name="rcommaaccent">
          -11 callgsubr
          hstemhm
          56 99 -95 108 hintmask 11010000
          -83 callsubr
          hintmask 11100000
          -119 -572 -72 callsubr
          endchar
        </CharString>
        <CharString name="registered">
          128 155 53 170 60 89 61 73 52 hstem
          151 54 100 79 83 77 93 55 vstem
          26 callsubr
          155 163 20 callsubr
          -163 -156 27 callsubr
          93 103 123 29 callgsubr
          -125 -122 -94 102 124 vhcurveto
          259 -155 rmoveto
          84 hlineto
          -47 112 rlineto
          32 21 11 25 51 vvcurveto
          73 -46 27 -68 vhcurveto
          -125 -309 80 99 42 hlineto
          -43 149 rmoveto
          36 hlineto
          32 15 -15 -30 -28 -14 -16 -27 hvcurveto
          -42 hlineto
          endchar
        </CharString>
        <CharString name="ring">
          277 535 66 73 76 hstem
          307 60 73 60 vstem
          307 639 -93 callsubr
          endchar
        </CharString>
        <CharString name="ring.cap">
          -186 446 743 -67 callgsubr
          endchar
        </CharString>
        <CharString name="s">
          -83 -43 callgsubr
          0 callsubr
          104 110 hintmask 11101100
          14 callgsubr
          hintmask 11011100
          -102 callsubr
          hintmask 11101100
          1 callgsubr
          endchar
        </CharString>
        <CharString name="sacute">
          -83 -43 callgsubr
          87 -21 0 callsubr
          104 110 hintmask 11101110
          14 callgsubr
          hintmask 11011110
          -102 callsubr
          hintmask 11101110
          1 callgsubr
          -205 182 -89 callgsubr
          endchar
        </CharString>
        <CharString name="scaron">
          -83 -43 callgsubr
          91 -36 callsubr
          0 callsubr
          9 138 -43 110 -55 163 hintmask 1110111010000000
          14 callgsubr
          hintmask 1101111010000000
          -102 callsubr
          hintmask 1110111101000000
          1 callgsubr
          -89 177 -14 callgsubr
        </CharString>
        <CharString name="scedilla">
          -82 -10 callgsubr
          27 92 -76 -20 218 91 109 81 -66 92 0 callsubr
          -40 46 -7 87 18 110 hintmask 1101110001100000
          308 -124 rmoveto
          hintmask 1101110100100000
          -50 callsubr
          hintmask 1110110010100000
          7 27 rlineto
          122 3 91 60 123 vvcurveto
          76 -48 18 -86 25 vhcurveto
          hintmask 1101101100100000
          -62 18 -18 9 27 vvcurveto
          38 30 32 54 vhcurveto
          hintmask 1101110010100000
          1 callgsubr
          20 81 rlineto
          hintmask 1101101010100000
          0 -79 26 -94 vhcurveto
          hintmask 1101110100100000
          -110 -94 -69 -120 -70 52 -26 84 -22 hvcurveto
          54 -14 23 -8 -27 vvcurveto
          hintmask 1110110010100000
          -46 -35 -27 -64 -64 -95 18 0 vhcurveto
          -20 -81 rlineto
          0 58 -21 72 -6 vhcurveto
          -18 -82 rlineto
          29 hlineto
          hintmask 1101110001100000
          -97 callsubr
          endchar
        </CharString>
        <CharString name="scircumflex">
          -83 -43 callgsubr
          91 -36 callsubr
          0 callsubr
          -28 106 26 110 -65 134 hintmask 1110111010000000
          14 callgsubr
          hintmask 1101111010000000
          -102 callsubr
          hintmask 1110110101000000
          1 callgsubr
          -276 177 rmoveto
          106 hlineto
          -86 callsubr
        </CharString>
        <CharString name="scommaaccent">
          -84 -43 callgsubr
          0 callsubr
          -59 99 64 110 hintmask 11101010
          14 callgsubr
          hintmask 11011010
          -102 callsubr
          hintmask 11100110
          1 callgsubr
          -307 -475 -72 callsubr
          endchar
        </CharString>
        <CharString name="section">
          -34 -171 97 619 98 hstem
          161 106 120 112 vstem
          559 622 rmoveto
          0 -92 21 -63 -165 -78 -119 -84 -25 2 -36 18 -18 vhcurveto
          -26 -19 -66 -60 -83 vvcurveto
          -59 31 -38 91 -24 vhcurveto
          92 -25 23 -2 -41 vvcurveto
          -43 -46 -41 -75 -51 -99 14 0 vhcurveto
          -31 -91 rlineto
          0 102 -20 64 212 31 165 58 19 -2 16 -15 23 vhcurveto
          26 29 57 68 67 vvcurveto
          42 -20 56 -100 22 vhcurveto
          -60 13 -52 8 45 vvcurveto
          52 42 33 78 45 102 -15 0 vhcurveto
          -222 -227 rmoveto
          54 -12 21 -14 -28 vvcurveto
          -34 -32 -55 -10 -10 vhcurveto
          -22 10 -26 8 -33 10 rrcurveto
          -44 11 -20 10 28 vvcurveto
          36 35 51 8 9 vhcurveto
          7 -5 33 -9 29 -6 rrcurveto
          endchar
        </CharString>
        <CharString name="semicolon">
          -328 -109 -21 265 -20 hstemhm
          115 108 -77 110 hintmask 11100000
          -31 -130 rmoveto
          109 265 rlineto
          119 hlineto
          -139 -265 rlineto
          58 441 -9 callgsubr
          hintmask 11010000
          30 135 -63 callsubr
          endchar
        </CharString>
        <CharString name="seven">
          46 564 96 hstem
          492 107 vstem
          205 564 rmoveto
          295 hlineto
          -8 -39 -362 -510 101 -31 368 528 34 148 rlineto
          -406 hlineto
          endchar
        </CharString>
        <CharString name="seven.dnom">
          -88 -21 234 87 hstem
          168 107 vstem
          58 125 -73 callsubr
        </CharString>
        <CharString name="seven.numr">
          390 -21 234 87 hstem
          283 107 vstem
          173 603 -73 callsubr
        </CharString>
        <CharString name="seven.pnum">
          -109 0 -21 422 100 hstem
          102 401 rmoveto
          262 hlineto
          -8 -29 -277 -342 91 -51 306 385 33 137 rlineto
          -381 hlineto
          endchar
        </CharString>
        <CharString name="seveninferior">
          -88 -21 234 87 hstem
          169 107 vstem
          59 125 -73 callsubr
        </CharString>
        <CharString name="sevensuperior">
          490 -21 234 87 hstem
          300 107 vstem
          190 703 -73 callsubr
        </CharString>
        <CharString name="six">
          46 -11 96 0 -20 259 96 156 95 hstem
          105 114 244 114 vstem
          637 650 rmoveto
          0 -90 21 -76 -241 -125 -259 -192 -157 78 -74 125 174 95 109 154 105 -53 63 -126 -69 -85 -38 0 vhcurveto
          104 34 59 90 108 hhcurveto
          79 79 -16 0 hvcurveto
          -238 -236 rmoveto
          64 34 -23 -62 -94 -50 -60 -99 -69 -26 63 69 29 5 30 4 17 hvcurveto
          0 65 31 72 vhcurveto
          endchar
        </CharString>
        <CharString name="six.dnom">
          -110 -1 callsubr
          30 83 57 89 vstem
          300 211 -101 callsubr
        </CharString>
        <CharString name="six.numr">
          368 -1 callsubr
          140 83 57 89 vstem
          410 689 -101 callsubr
        </CharString>
        <CharString name="six.pnum">
          -47 -10 89 238 -20 116 97 hstem
          65 108 209 110 vstem
          543 485 rmoveto
          0 -100 25 -72 -194 -112 -161 -196 -94 50 -69 120 189 68 96 112 75 -39 44 -121 -49 -55 -16 -15 -29 vhcurveto
          91 24 49 36 88 hhcurveto
          76 75 -15 0 hvcurveto
          -211 -171 rmoveto
          64 18 -18 -29 -37 -21 -64 -102 -75 -11 43 38 12 2 17 2 10 hvcurveto
          0 60 28 63 vhcurveto
          endchar
        </CharString>
        <CharString name="sixinferior">
          -110 -1 callsubr
          32 83 57 89 vstem
          302 211 -101 callsubr
        </CharString>
        <CharString name="sixsuperior">
          468 -1 callsubr
          166 83 57 89 vstem
          436 789 -101 callsubr
        </CharString>
        <CharString name="slash">
          -67 3 -21 731 -20 hstem
          39 102 328 101 vstem
          141 -18 -39 callgsubr
          endchar
        </CharString>
        <CharString name="space">
          -294 endchar
        </CharString>
        <CharString name="sterling">
          46 617 658 rmoveto
          0 -88 21 -51 -119 -43 -64 -139 -34 vhcurveto
          -11 -43 rlineto
          -77 hlineto
          -22 -93 rlineto
          78 hlineto
          -56 -247 rlineto
          -96 hlineto
          -21 -93 rlineto
          332 hlineto
          76 17 2 93 -71 -17 rlineto
          -112 hlineto
          57 247 rlineto
          172 hlineto
          22 93 rlineto
          -173 hlineto
          7 30 rlineto
          72 18 13 48 62 hhcurveto
          44 66 -8 0 hvcurveto
          endchar
        </CharString>
        <CharString name="summation">
          46 -172 97 734 98 hstem
          353 302 rmoveto
          -250 -352 rlineto
          -122 487 97 -369 20 vlineto
          233 318 rlineto
          77 vlineto
          -233 301 rlineto
          18 369 98 -487 -122 vlineto
          endchar
        </CharString>
        <CharString name="t">
          25 callgsubr
          398 407 -90 callgsubr
          endchar
        </CharString>
        <CharString name="tbar">
          -186 -11 92 143 94 89 93 137 -20 hstem
          400 407 rmoveto
          23 93 rlineto
          -120 hlineto
          32 137 rlineto
          -109 hlineto
          -31 -137 rlineto
          -57 hlineto
          -24 -93 rlineto
          58 hlineto
          -21 -89 rlineto
          -53 hlineto
          -20 -94 rlineto
          51 hlineto
          -7 -30 rlineto
          -8 -33 -7 -38 -32 vvcurveto
          -59 38 -43 71 53 52 19 0 vhcurveto
          9 79 rlineto
          0 -46 -6 -26 -28 -11 13 24 17 5 29 5 21 vhcurveto
          9 39 rlineto
          -3 callgsubr
          21 94 -63 callsubr
          21 89 rlineto
          endchar
        </CharString>
        <CharString name="tcaron">
          -77 -11 92 326 93 -37 -21 195 -20 68 -20 hstemhm
          505 99 hintmask 10111100
          604 24 callsubr
          hintmask 11011100
          -148 -35 -90 callgsubr
          endchar
        </CharString>
        <CharString name="tcedilla">
          -190 -10 callgsubr
          27 92 -73 -20 419 93 137 -20 hstemhm
          170 47 -5 87 hintmask 11101101
          299 -124 rmoveto
          -50 callsubr
          7 27 rlineto
          hintmask 11011110
          53 52 19 0 hvcurveto
          9 79 rlineto
          hintmask 11101110
          0 -46 -6 -26 -28 -11 13 24 17 5 29 5 21 vhcurveto
          52 222 rlineto
          119 hlineto
          23 93 rlineto
          -120 hlineto
          32 137 rlineto
          -109 hlineto
          -31 -137 rlineto
          -57 hlineto
          -24 -93 rlineto
          58 hlineto
          -50 -213 rlineto
          -8 -33 -7 -38 -32 vvcurveto
          -46 22 -36 43 -14 vhcurveto
          -19 -86 rlineto
          29 hlineto
          hintmask 11101101
          -97 callsubr
          endchar
        </CharString>
        <CharString name="tcommaaccent">
          25 callgsubr
          125 99 vstem
          398 407 -90 callgsubr
          -154 -479 -72 callsubr
          endchar
        </CharString>
        <CharString name="thorn">
          -24 -192 -21 202 97 324 100 196 -20 hstem
          225 102 81 104 vstem
          390 510 rmoveto
          -58 -57 -45 -4 -5 hvcurveto
          57 245 rlineto
          -102 hlineto
          -217 -919 rlineto
          102 hlineto
          49 209 rlineto
          -2 42 -5 40 141 77 70 197 53 vhcurveto
          106 30 -3 148 -149 hhcurveto
          -145 -148 rmoveto
          -2 64 50 46 75 -7 -96 -57 -15 vhcurveto
          -108 -29 -40 -63 -78 hhcurveto
          -79 8 rlineto
          endchar
        </CharString>
        <CharString name="three">
          46 -11 96 203 90 175 -21 44 95 hstemhm
          427 113 -57 114 hintmask 11110100
          205 560 rmoveto
          0 95 16 83 70 30 -25 -49 -69 -77 -54 -56 -1 vhcurveto
          -129 -5 -21 -84 128 -1 rlineto
          hintmask 11111000
          73 -1 26 -25 -46 vvcurveto
          -84 -72 -47 -83 -72 -112 17 0 vhcurveto
          -24 -78 rlineto
          0 101 -35 98 163 114 91 141 73 -22 30 -48 25 vhcurveto
          hintmask 11110100
          85 39 42 50 94 vvcurveto
          95 -59 44 -131 -99 -92 -36 23 callsubr
        </CharString>
        <CharString name="three.dnom">
          -110 11 callgsubr
          161 89 vstem
          79 213 -104 callsubr
          endchar
        </CharString>
        <CharString name="three.numr">
          368 11 callgsubr
          275 89 vstem
          193 691 -104 callsubr
          endchar
        </CharString>
        <CharString name="three.pnum">
          -76 -9 104 111 97 103 104 hstemhm
          348 111 -73 116 hintmask 11101000
          142 487 rmoveto
          -13 -95 rlineto
          0 101 14 76 61 19 -9 -28 -46 -45 -20 -54 vhcurveto
          -126 hlineto
          -25 -97 rlineto
          126 hlineto
          hintmask 11110000
          48 38 -8 -32 -45 -44 -26 -76 -70 -108 13 0 hvcurveto
          -34 -95 rlineto
          0 108 -22 91 181 63 100 92 36 -25 31 -46 12 vhcurveto
          hintmask 11101000
          42 7 72 35 103 vvcurveto
          50 -34 53 -136 -79 -111 -23 23 callsubr
        </CharString>
        <CharString name="threeinferior">
          -110 11 callgsubr
          161 89 vstem
          79 213 -104 callsubr
          endchar
        </CharString>
        <CharString name="threequarters">
          107 3 -21 39 -16 callgsubr
          176 79 53 72 41 -20 28 79 hstemhm
          110 102 72 89 134 87 -54 101 hintmask 1011111111010000
          202 791 -104 callsubr
          10 -809 -39 callgsubr
          hintmask 0111111111100000
          397 -18 -38 callgsubr
          hintmask 0111111111010000
          -94 callgsubr
        </CharString>
        <CharString name="threesuperior">
          468 11 callgsubr
          297 89 vstem
          215 791 -104 callsubr
          endchar
        </CharString>
        <CharString name="tilde">
          -76 600 -10 callsubr
          hintmask 10000000
          524 736 -56 callsubr
          hintmask 01000000
          -95 callgsubr
          hintmask 10000000
          -81 callsubr
          endchar
        </CharString>
        <CharString name="tilde.cap">
          -68 590 929 -91 callsubr
          endchar
        </CharString>
        <CharString name="trademark">
          179 352 -21 22 -21 239 67 hstemhm
          290 74 80 69 147 69 hintmask 01111100
          216 571 rmoveto
          74 -239 74 239 52 67 -200 hlineto
          hintmask 10111100
          228 -307 rmoveto
          69 196 hlineto
          50 -178 rlineto
          49 hlineto
          48 178 rlineto
          -196 69 307 -88 vlineto
          -56 -180 -52 180 rlineto
          -89 hlineto
          endchar
        </CharString>
        <CharString name="two">
          46 0 96 480 96 hstem
          487 114 vstem
          489 hmoveto
          23 96 rlineto
          -294 hlineto
          208 161 rlineto
          104 81 71 69 115 vvcurveto
          104 -63 46 -130 -87 -98 -32 0 vhcurveto
          -14 -82 rlineto
          0 97 18 71 80 30 -21 -58 -58 -63 -60 -114 -97 vhcurveto
          -223 -191 -22 -91 rlineto
          endchar
        </CharString>
        <CharString name="two.dnom">
          -100 79 159 84 hstem
          186 95 vstem
          227 -100 -100 callgsubr
        </CharString>
        <CharString name="two.numr">
          378 79 159 84 hstem
          293 95 vstem
          334 378 -100 callgsubr
        </CharString>
        <CharString name="two.pnum">
          -84 21 -21 404 105 hstem
          356 131 vstem
          414 hmoveto
          24 104 rlineto
          -218 hlineto
          133 92 rlineto
          77 53 57 51 93 vvcurveto
          60 -41 56 -117 -88 -106 -25 0 vhcurveto
          -17 -97 rlineto
          1 92 16 66 65 15 -16 -23 -42 -100 -75 -75 -51 vhcurveto
          -142 -98 -24 -99 rlineto
          endchar
        </CharString>
        <CharString name="twoinferior">
          -100 79 159 84 hstem
          182 95 vstem
          223 -100 -100 callgsubr
        </CharString>
        <CharString name="twosuperior">
          478 79 159 84 hstem
          317 95 vstem
          358 478 -100 callgsubr
        </CharString>
        <CharString name="u">
          -39 callsubr
          0 callgsubr
          hintmask 10111000
          454 500 rmoveto
          -30 callgsubr
          -98 callgsubr
          hintmask 01111000
          -76 callgsubr
          hintmask 10111000
          -11 -66 rlineto
          104 -78 callsubr
          endchar
        </CharString>
        <CharString name="uacute">
          -39 callsubr
          117 -21 0 callgsubr
          hintmask 10111100
          454 500 rmoveto
          -30 callgsubr
          -98 callgsubr
          hintmask 01111100
          -76 callgsubr
          hintmask 10111100
          -11 -66 rlineto
          104 -78 callsubr
          -264 85 -89 callgsubr
          endchar
        </CharString>
        <CharString name="ubreve">
          -39 callsubr
          111 90 hstemhm
          92 112 47 97 -5 104 29 97 hintmask 10111011
          454 500 rmoveto
          -30 callgsubr
          -98 callgsubr
          hintmask 01111011
          -76 callgsubr
          hintmask 10111011
          -11 -66 rlineto
          104 -78 callsubr
          hintmask 10111101
          -311 239 -96 callgsubr
        </CharString>
        <CharString name="ucircumflex">
          -8 104 -21 176 395 -74 -20 hstemhm
          222 55 100 51 hintmask 10111000
          207 -4 callgsubr
          hintmask 11011000
          71 74 rlineto
          hintmask 10111000
          35 -74 rlineto
          107 hlineto
          -86 165 rlineto
          -80 hlineto
          85 -245 rmoveto
          -30 callgsubr
          -22 callgsubr
          -23 callsubr
          vhcurveto
          hintmask 11011000
          -36 callgsubr
          vhcurveto
          -51 callsubr
        </CharString>
        <CharString name="udieresis">
          -8 148 578 -539 -21 443 -20 hstemhm
          204 18 35 197 hintmask 01111000
          230 609 rmoveto
          98 hlineto
          hintmask 10011000
          -15 callgsubr
          -98 hlineto
          hintmask 01111000
          -18 callgsubr
          hintmask 10011000
          -15 callgsubr
          -98 hlineto
          hintmask 01111000
          -226 vmoveto
          -71 callsubr
        </CharString>
        <CharString name="ugrave">
          -8 251 420 -150 -21 167 -20 hstemhm
          92 20 110 70 hintmask 01111000
          hintmask 10011000
          292 759 rmoveto
          hintmask 01111000
          -65 callsubr
          -43 -167 rmoveto
          -30 callgsubr
          -22 callgsubr
          -23 callsubr
          -36 callgsubr
          vhcurveto
          -54 callgsubr
          hintmask 10011000
          -16 callsubr
          -7 -32 -13 -59 -37 vvcurveto
          -76 callgsubr
          -11 -66 rlineto
          104 hlineto
          hintmask 01111000
          -75 callsubr
          endchar
        </CharString>
        <CharString name="uhungarumlaut">
          -8 148 646 -607 -21 405 -20 hstemhm
          204 18 197 35 hintmask 01111000
          482 571 rmoveto
          168 166 rlineto
          hintmask 10011000
          -69 57 -162 -168 rlineto
          hintmask 01111000
          -126 -55 rmoveto
          168 166 -69 56 -161 -167 rlineto
          223 -126 rmoveto
          -71 callsubr
        </CharString>
        <CharString name="umacron">
          -39 callsubr
          144 95 0 callgsubr
          hintmask 10111100
          454 500 rmoveto
          -30 callgsubr
          -98 callgsubr
          hintmask 01111100
          -76 callgsubr
          hintmask 10111100
          -11 -66 rlineto
          104 -78 callsubr
          -326 132 -64 callsubr
        </CharString>
        <CharString name="underscore">
          7 -182 102 hstem
          18 -80 rmoveto
          -23 -102 rlineto
          448 hlineto
          23 102 rlineto
          endchar
        </CharString>
        <CharString name="uni00A0">
          -294 endchar
        </CharString>
        <CharString name="uni1EAB">
          -42 callgsubr
          60 -36 callsubr
          49 -10 callsubr
          84 110 49 106 71 134 hintmask 1111101110000000
          219 -11 -107 callgsubr
          273 461 -56 callsubr
          hintmask 1111011110000000
          -95 callgsubr
          hintmask 1111101110000000
          -81 callsubr
          -374 -253 rmoveto
          106 hlineto
          -86 callsubr
        </CharString>
        <CharString name="uni1EB0">
          19 callsubr
          427 -364 86 207 -21 hstemhm
          18 112 199 98 174 46 hintmask 0110111110000000
          hintmask 0111001110000000
          442 1112 rmoveto
          -65 callsubr
          -629 -1020 5 callgsubr
          hintmask 1000111110000000
          -18 callsubr
          -85 callgsubr
          87 644 rmoveto
          hintmask 1001001110000000
          -92 callsubr
          endchar
        </CharString>
        <CharString name="uni1EC5">
          -66 callgsubr
          61 -36 callsubr
          49 -10 callsubr
          85 109 23 106 29 5 37 134 -114 107 hintmask 1111110111010000
          591 880 -56 callsubr
          hintmask 1111101111010000
          -95 callgsubr
          hintmask 1111110111010000
          -81 callsubr
          -318 -721 -106 callgsubr
          -43 259 rmoveto
          106 hlineto
          hintmask 1111110111100000
          -86 callsubr
        </CharString>
        <CharString name="uni1ED7">
          -43 callsubr
          61 -36 callsubr
          49 -10 callsubr
          85 185 -54 106 71 134 -111 108 hintmask 1111101001000000
          337 510 rmoveto
          -105 callgsubr
          319 799 -56 callsubr
          hintmask 1111011001000000
          -95 callgsubr
          hintmask 1111100110000000
          -81 callsubr
          -377 -253 rmoveto
          106 hlineto
          -86 callsubr
        </CharString>
        <CharString name="uni1EF8">
          -15 21 -21 793 -10 callsubr
          163 113 -82 104 236 118 hintmask 11001100
          602 929 -56 callsubr
          hintmask 10101100
          -95 callgsubr
          hintmask 11010100
          -81 callsubr
          46 -167 -73 callgsubr
          100 -387 rlineto
          hintmask 11001100
          -63 callgsubr
        </CharString>
        <CharString name="uni1EF9">
          -28 callgsubr
          120 -10 callsubr
          135 103 hintmask 11110100
          540 736 -56 callsubr
          hintmask 11101100
          -95 callgsubr
          hintmask 11110100
          -81 callsubr
          -413 -159 -96 callsubr
          endchar
        </CharString>
        <CharString name="uogonek">
          -8 -210 96 114 83 -73 -21 25 -20 506 -20 hstemhm
          92 112 43 117 -21 104 hintmask 10011110
          454 500 rmoveto
          -30 callgsubr
          hintmask 11001110
          -98 callgsubr
          hintmask 10101101
          -76 callgsubr
          -11 -63 rlineto
          hintmask 10011110
          -38 -30 -58 -60 -52 vvcurveto
          -46 28 22 callsubr
          11 90 rlineto
          -50 callgsubr
          vhcurveto
          hintmask 11001101
          29 54 51 29 17 vhcurveto
          -75 callsubr
          endchar
        </CharString>
        <CharString name="uring">
          -39 callsubr
          55 66 73 76 hstemhm
          92 112 95 60 -16 104 -15 60 hintmask 1011111010000000
          299 639 -93 callsubr
          95 -139 rmoveto
          -30 callgsubr
          -98 callgsubr
          hintmask 0111111010000000
          -76 callgsubr
          hintmask 1011110100000000
          -11 -66 rlineto
          104 -78 callsubr
          endchar
        </CharString>
        <CharString name="utilde">
          -39 callsubr
          120 96 -50 95 0 callgsubr
          hintmask 10110110
          551 736 -56 callsubr
          hintmask 10101110
          -95 callgsubr
          hintmask 10110110
          -81 callsubr
          -101 -159 rmoveto
          -30 callgsubr
          -98 callgsubr
          hintmask 01110110
          -76 callgsubr
          hintmask 10110110
          -11 -66 rlineto
          104 -78 callsubr
          endchar
        </CharString>
        <CharString name="v">
          -55 0 90 410 -20 hstem
          131 4 180 243 vstem
          131 500 rmoveto
          4 -500 rlineto
          180 hlineto
          243 500 -63 callsubr
          -191 -410 rlineto
          -24 hlineto
          5 410 rlineto
          endchar
        </CharString>
        <CharString name="w">
          -1 callgsubr
          hstem
          139 161 143 398 vstem
          139 500 -58 callsubr
          -95 callsubr
          endchar
        </CharString>
        <CharString name="wacute">
          -1 callgsubr
          117 -21 hstem
          139 161 143 398 vstem
          139 500 -58 callsubr
          -95 callsubr
          155 85 -89 callgsubr
          endchar
        </CharString>
        <CharString name="wcircumflex">
          -1 callgsubr
          121 -36 callsubr
          hstemhm
          139 161 43 106 -6 398 -321 134 hintmask 11111010
          139 500 -58 callsubr
          -95 callsubr
          hintmask 11111101
          95 80 rmoveto
          106 hlineto
          -86 callsubr
        </CharString>
        <CharString name="wdieresis">
          -1 callgsubr
          137 109 hstemhm
          139 161 56 96 -9 398 -287 96 hintmask 11111010
          139 500 -58 callsubr
          rlineto
          hintmask 11110100
          -95 callsubr
          116 109 -60 callsubr
        </CharString>
        <CharString name="wgrave">
          234 0 0 667 -20 hstem
          139 161 45 257 vstem
          397 27 callgsubr
          -463 -167 -58 callsubr
          -95 callsubr
          endchar
        </CharString>
        <CharString name="x">
          -89 129 500 rmoveto
          83 -250 -201 -250 rlineto
          114 hlineto
          125 167 50 -167 rlineto
          -3 callgsubr
          -84 242 202 258 -67 callsubr
          -127 -172 -51 172 rlineto
          endchar
        </CharString>
        <CharString name="y">
          -28 callgsubr
          hstem
          135 103 vstem
          -52 callgsubr
          endchar
        </CharString>
        <CharString name="yacute">
          -28 callgsubr
          117 -21 hstem
          135 103 vstem
          -52 callgsubr
          42 85 -89 callgsubr
          endchar
        </CharString>
        <CharString name="ycircumflex">
          -28 callgsubr
          121 -36 callsubr
          hstemhm
          135 103 -39 106 71 134 hintmask 11111101
          -52 callgsubr
          hintmask 11111011
          -39 80 rmoveto
          106 hlineto
          -86 callsubr
        </CharString>
        <CharString name="ydieresis">
          -54 609 -20 137 -20 41 -21 hstem
          135 174 vstem
          211 -12 callsubr
          171 -117 rmoveto
          97 22 callgsubr
          -304 -226 -96 callsubr
          endchar
        </CharString>
        <CharString name="yen">
          46 21 -21 140 96 55 95 274 -20 hstem
          140 291 rmoveto
          150 hlineto
          4 -13 -10 -42 rlineto
          -157 hlineto
          -23 -96 rlineto
          159 hlineto
          -34 -140 rlineto
          -3 callgsubr
          33 140 rlineto
          153 hlineto
          22 96 rlineto
          -153 hlineto
          10 41 11 14 rlineto
          144 hlineto
          22 95 rlineto
          -93 hlineto
          225 274 rlineto
          -144 hlineto
          -201 -252 -104 252 rlineto
          -120 hlineto
          110 -274 rlineto
          -94 hlineto
          endchar
        </CharString>
        <CharString name="ygrave">
          -54 -215 -20 902 -20 133 -21 hstem
          414 144 vstem
          255 27 callgsubr
          -329 -167 -96 callsubr
          endchar
        </CharString>
        <CharString name="z">
          12 callsubr
          hstem
          129 407 -41 callgsubr
        </CharString>
        <CharString name="zacute">
          12 callsubr
          97 -21 -45 callgsubr
          118 178 -89 callgsubr
          endchar
        </CharString>
        <CharString name="zcaron">
          12 callsubr
          101 -36 callsubr
          hstem
          218 138 12 163 vstem
          368 580 -84 callsubr
          -172 -173 -41 callgsubr
        </CharString>
        <CharString name="zdotaccent">
          12 callsubr
          -45 callgsubr
          160 185 -44 callgsubr
        </CharString>
        <CharString name="zero">
          46 -11 96 -75 -21 587 95 hstem
          98 114 288 114 vstem
          405 671 rmoveto
          -184 -123 -212 -267 -130 64 -73 144 182 126 206 271 131 -63 74 -146 hvcurveto
          -2 -95 rmoveto
          71 26 -42 -82 -154 -69 -213 -123 -69 -27 39 82 150 67 220 124 hvcurveto
          endchar
        </CharString>
        <CharString name="zero.dnom">
          -110 79 174 79 hstem
          29 91 68 91 vstem
          195 222 -100 callsubr
        </CharString>
        <CharString name="zero.numr">
          368 79 174 79 hstem
          137 91 68 91 vstem
          303 700 -100 callsubr
        </CharString>
        <CharString name="zero.pnum">
          -5 -8 101 314 102 hstem
          63 121 253 123 vstem
          374 509 rmoveto
          -62 -55 -15 -29 -44 hvcurveto
          -98 -65 -52 -125 -120 vvcurveto
          -109 66 -54 114 77 62 21 36 48 vhcurveto
          91 69 39 120 96 vvcurveto
          120 -59 55 -127 vhcurveto
          -24 -102 rmoveto
          59 28 -29 -66 -28 -19 -191 -149 -57 -28 31 54 109 60 120 106 hvcurveto
          endchar
        </CharString>
        <CharString name="zero.slash">
          46 -100 -21 110 103 -82 -21 580 102 128 -20 hstemhm
          31 68 -7 120 288 121 -8 70 hintmask 1011101010000000
          412 671 rmoveto
          -184 -136 -196 -274 -56 15 -47 27 -35 hvcurveto
          hintmask 1101110100000000
          -103 -159 68 -25 89 136 rlineto
          -17 31 36 -9 41 hhcurveto
          231 94 244 229 63 -16 48 -29 35 hvcurveto
          hintmask 1011110010000000
          107 164 -70 27 -96 -148 rlineto
          13 -29 -36 7 -40 hhcurveto
          hintmask 1101101100000000
          88 -224 rmoveto
          -154 -61 -201 -131 -23 -19 7 12 -15 vhcurveto
          246 376 rlineto
          2 -12 1 -13 -15 vvcurveto
          -98 122 rmoveto
          21 18 -4 -9 14 hvcurveto
          -242 -372 rlineto
          -1 9 0 8 10 vvcurveto
          164 58 194 132 vhcurveto
          endchar
        </CharString>
        <CharString name="zeroinferior">
          -10 79 174 79 hstem
          51 91 68 91 vstem
          217 322 -100 callsubr
        </CharString>
        <CharString name="zerosuperior">
          468 79 174 79 hstem
          161 91 68 91 vstem
          327 800 -100 callsubr
        </CharString>
      <CharString index="0">
        rmoveto
        -37 callsubr
        -4 -19 -11 -72 0 vvcurveto
        107 4 rlineto
        -61 callgsubr
        75 324 rlineto
        0 -161 29 -69 -176 -77 -210 -145 -98 39 -69 96 vhcurveto
        121 430 rmoveto
        35 68 -15 0 hvcurveto
        -51 -215 rlineto
        0 -86 -107 -51 -47 -14 27 47 106 49 157 97 vhcurveto
        return
      </CharString>
      <CharString index="1">
        rmoveto
        -72 callgsubr
        hvcurveto
        42 hlineto
        190 89 37 127 98 -64 39 -100 -192 -80 -182 -177 -111 55 -51 107 93 91 28 0 hvcurveto
        11 82 rlineto
        0 -95 -17 -70 vhcurveto
        -64 209 rmoveto
        82 22 44 49 73 hhcurveto
        39 23 -13 -37 -61 -44 -20 -110 hvcurveto
        return
      </CharString>
      <CharString index="2">
        -155 -97 -175 -168 -126 67 -52 118 165 89 174 167 125 -68 55 -119 hvcurveto
        -67 -429 rmoveto
        -51 -26 31 54 123 55 129 89 53 26 -34 -53 -123 -55 -127 -91 hvcurveto
        return
      </CharString>
      <CharString index="3">
        rmoveto
        -81 -45 -29 -58 -14 hvcurveto
        -13 -49 20 -19 9 -4 -11 -3 -35 -23 -12 -47 rrcurveto
        -75 -18 39 -25 78 hhcurveto
        79 51 23 79 20 hvcurveto
        13 49 -24 18 -10 3 12 4 30 24 11 45 rrcurveto
        57 14 -32 30 -81 hhcurveto
        -65 -261 rmoveto
        -21 -10 11 20 6 hvcurveto
        4 17 12 11 16 7 rrcurveto
        20 hlineto
        12 -7 7 -11 -4 -16 rrcurveto
        -21 -6 -13 -11 -23 hhcurveto
        48 190 rmoveto
        22 7 -10 -17 -5 hvcurveto
        -3 -15 -10 -11 -16 -7 rrcurveto
        -20 hlineto
        -11 7 -6 11 3 15 rrcurveto
        18 5 12 9 22 hhcurveto
        endchar
      </CharString>
      <CharString index="4">
        -102 callgsubr
        -89 callsubr
        return
      </CharString>
      <CharString index="5">
        -24 -27 -34 -13 -37 hhcurveto
        -17 -97 rmoveto
        4 callsubr
        146 -82 61 -136 -74 -64 -24 -45 -50 vhcurveto
        return
      </CharString>
      <CharString index="6">
        rmoveto
        0 54 -12 45 97 43 49 118 30 vhcurveto
        108 27 -24 57 -87 hhcurveto
        -73 -53 -40 -73 -19 hvcurveto
        -67 -16 25 -37 67 hhcurveto
        22 27 8 -1 -1 hvcurveto
        -25 -6 -16 -18 -34 hhcurveto
        -38 -46 6 0 hvcurveto
        126 100 rmoveto
        -17 -8 14 21 5 hvcurveto
        22 6 14 13 18 hhcurveto
        23 5 -21 -40 -10 hvcurveto
        0 -22 -9 -14 vhcurveto
        endchar
      </CharString>
      <CharString index="7">
        rmoveto
        19 79 -80 callsubr
        59 42 48 32 25 28 11 45 rlinecurve
        68 17 -22 28 -77 hhcurveto
        -44 -70 -10 0 hvcurveto
        -17 -81 rlineto
        0 57 7 25 27 14 -6 -18 -5 vhcurveto
        -5 -21 -20 -19 -40 -28 -97 -71 rcurveline
        -18 -75 rlineto
        endchar
      </CharString>
      <CharString index="8">
        0 -98 33 -101 -145 -91 -90 -131 -91 44 -37 94 -38 vhcurveto
        -94 callsubr
        return
      </CharString>
      <CharString index="9">
        -22 callgsubr
        -23 callsubr
        -36 callgsubr
        vhcurveto
        -54 callgsubr
        -16 callsubr
        -7 -32 -13 -59 -37 vvcurveto
        return
      </CharString>
      <CharString index="10">
        525 88 rmoveto
        -53 -21 23 37 -3 hvcurveto
        -2 16 3 20 4 21 285 -2 rcurveline
        19 72 10 33 5 36 -1 33 rlinecurve
        85 -4 -49 48 -97 hhcurveto
        -57 -51 -17 -38 -39 hvcurveto
        38 -17 -43 17 -52 hhcurveto
        -71 -121 -18 0 hvcurveto
        -17 -97 rlineto
        0 111 13 70 57 -12 -66 -33 -11 vhcurveto
        -48 -49 -4 -8 -48 hvcurveto
        -78 -13 -63 -38 -21 -97 rrcurveto
        -80 -18 37 -80 87 hhcurveto
        53 101 33 18 40 hvcurveto
        -34 24 46 -17 64 hhcurveto
        89 95 23 0 hvcurveto
        19 85 rlineto
        0 -104 -9 -69 vhcurveto
        -321 -5 rmoveto
        -39 -5 40 29 7 hvcurveto
        9 39 30 22 39 4 32 4 40 3 32 2 -10 -41 -8 -40 7 -38 rrcurveto
        -11 -40 -58 -13 -36 hhcurveto
        268 206 rmoveto
        82 20 35 45 70 hhcurveto
        44 23 -19 -36 3 hvcurveto
        3 -20 -3 -26 -8 -28 rrcurveto
        return
      </CharString>
      <CharString index="11">
        rmoveto
        -94 -15 39 -54 96 hhcurveto
        114 59 58 90 29 hvcurveto
        -97 hlineto
        -36 -12 -25 -22 -41 hhcurveto
        -44 -12 27 31 6 hvcurveto
        endchar
      </CharString>
      <CharString index="12">
        -25 -54 45 -49 hhcurveto
        -44 -64 -60 0 hvcurveto
        2 -76 rlineto
        0 59 41 25 vhcurveto
        return
      </CharString>
      <CharString index="13">
        19 79 rlineto
        -17 hlineto
        22 89 rlineto
        -76 hlineto
        -33 -89 rlineto
        -47 hlineto
        108 192 rlineto
        -97 hlineto
        -104 -198 -18 -73 rlineto
        138 hlineto
        endchar
      </CharString>
      <CharString index="14">
        vstem
        348 511 rmoveto
        -176 -86 -165 -193 -105 61 -59 99 68 71 23 0 hvcurveto
        8 82 rlineto
        0 -67 -11 -42 -63 -24 33 60 114 45 127 102 43 72 -12 0 vhcurveto
        28 80 rlineto
        0 -74 26 -65 vhcurveto
        return
      </CharString>
      <CharString index="15">
        vstem
        23 callgsubr
        -38 callsubr
        192 81 213 148 80 68 -14 0 vhcurveto
        26 84 rlineto
        0 -88 27 -81 -253 -96 -298 -212 -127 64 -70 136 77 91 24 0 vhcurveto
        return
      </CharString>
      <CharString index="16">
        rmoveto
        115 hlineto
        77 66 38 -66 4 callgsubr
        -96 146 rlineto
        return
      </CharString>
      <CharString index="17">
        rmoveto
        23 93 rlineto
        -120 hlineto
        32 137 rlineto
        -109 hlineto
        -31 -137 rlineto
        -57 hlineto
        -24 -93 rlineto
        58 hlineto
        -50 -213 rlineto
        -8 -33 -7 -38 -32 vvcurveto
        -59 38 -43 71 53 52 19 0 vhcurveto
        9 79 rlineto
        0 -46 -6 -26 -28 -11 13 24 17 5 29 5 21 vhcurveto
        52 222 rlineto
        return
      </CharString>
      <CharString index="18">
        rmoveto
        248 81 -9 97 -248 -92 rlineto
        return
      </CharString>
      <CharString index="19">
        81 hlineto
        -57 callgsubr
        -17 callgsubr
        89 100 -20 0 vhcurveto
        26 81 rlineto
        0 -98 36 -106 -249 -111 -251 -250 -139 76 -67 142 117 76 26 0 vhcurveto
        83 355 rlineto
        -192 hlineto
        return
      </CharString>
      <CharString index="20">
        rmoveto
        -107 hlineto
        -70 -68 -42 68 6 callgsubr
        95 -145 rlineto
        73 hlineto
        return
      </CharString>
      <CharString index="21">
        -111 hlineto
        -241 -582 rlineto
        -19 hlineto
        27 572 rlineto
        -122 hlineto
        -245 -572 rlineto
        -20 hlineto
        38 582 rlineto
        endchar
      </CharString>
      <CharString index="22">
        65 -97 rmoveto
        25 hlineto
        -5 -347 rlineto
        -184 hlineto
        return
      </CharString>
      <CharString index="23">
        rmoveto
        -105 70 -40 105 69 89 26 0 vhcurveto
        11 86 rlineto
        0 -78 -15 -66 -52 -33 10 48 50 33 30 84 62 vhcurveto
        hintmask 1011110001100000
        57 42 33 38 7 38 rrcurveto
        hintmask 1011101001100000
        7 36 0 42 0 vvcurveto
        -102 hlineto
        hintmask 1011110001100000
        -9 -40 -5 -25 -23 -29 -40 -30 rlinecurve
        -117 -86 -40 -41 -97 vvcurveto
        385 551 rmoveto
        -110 hlineto
        hintmask 1011100101100000
        -33 -146 rlineto
        110 hlineto
        endchar
      </CharString>
      <CharString index="24">
        77 334 rlineto
        0 75 83 46 41 11 -24 -41 -28 -11 -55 -7 -28 vhcurveto
        -56 -241 -46 callsubr
        57 248 rlineto
        8 33 13 58 38 vvcurveto
        76 -34 58 -86 -74 -67 -76 0 vhcurveto
        return
      </CharString>
      <CharString index="25">
        -56 callgsubr
        224 -143 -3 callgsubr
        return
      </CharString>
      <CharString index="26">
        rmoveto
        -49 23 -23 39 -20 vhcurveto
        -69 -24 -32 -31 -19 -81 -23 -123 rcurveline
        hintmask 11100000
        -12 -53 -27 -33 -71 -5 -18 -94 rcurveline
        128 5 63 39 34 111 3 9 18 105 7 29 12 51 14 25 89 23 19 80 rcurveline
        -50 23 -19 25 35 40 44 118 48 vvcurveto
        77 -57 42 -95 1 vhcurveto
        -26 -94 rlineto
        48 23 -20 -37 hvcurveto
        -43 -46 -118 -38 vvcurveto
        endchar
      </CharString>
      <CharString index="27">
        251 0 105 39 103 47 101 193 105 hstem
        328 129 vstem
        328 hmoveto
        399 hlineto
        23 105 rlineto
        -293 hlineto
        45 189 rlineto
        238 hlineto
        23 101 rlineto
        -237 hlineto
        46 194 294 -2 23 106 rlineto
        -546 hlineto
        -324 -693 rlineto
        106 hlineto
        69 144 rlineto
        168 hlineto
        37 444 rmoveto
        68 hlineto
        -80 -341 rlineto
        -146 hlineto
        return
      </CharString>
      <CharString index="28">
        113 43 172 83 75 vhcurveto
        -76 callsubr
      </CharString>
      <CharString index="29">
        108 -70 callgsubr
        return
      </CharString>
      <CharString index="30">
        rmoveto
        290 hlineto
        -6 -25 -393 -442 -27 -121 rlineto
        417 -46 callgsubr
        -293 hlineto
        6 25 395 440 28 123 rlineto
        -417 hlineto
        endchar
      </CharString>
      <CharString index="31">
        -76 34 -58 86 74 68 77 0 vhcurveto
        return
      </CharString>
      <CharString index="32">
        158 -61 callsubr
        return
      </CharString>
      <CharString index="33">
        hintmask 11111010
        -3 callgsubr
        -64 250 rlineto
        82 28 81 83 142 vvcurveto
        131 -65 51 -131 vhcurveto
        -203 2 callsubr
        54 235 rlineto
        126 hlineto
        151 263 rmoveto
        -91 -52 -76 -88 vhcurveto
        -115 hlineto
        60 258 rlineto
        106 hlineto
        65 24 -25 -66 hvcurveto
        endchar
      </CharString>
      <CharString index="34">
        rmoveto
        -118 hlineto
        -196 -290 -62 290 rlineto
        -113 hlineto
        return
      </CharString>
      <CharString index="35">
        -47 -36 24 49 17 2 22 4 15 return
      </CharString>
      <CharString index="36">
        108 21 -21 300 97 hstem
        70 112 47 111 100 111 47 -3 callsubr
        440 hmoveto
        -3 callgsubr
        -75 callgsubr
        -67 -288 rlineto
        -257 hlineto
        66 288 rlineto
        -111 2 callsubr
        69 300 rlineto
        257 hlineto
        return
      </CharString>
      <CharString index="37">
        -78 callsubr
        -108 hlineto
        return
      </CharString>
      <CharString index="38">
        -87 callsubr
        endchar
      </CharString>
      <CharString index="39">
        -82 callgsubr
        6 return
      </CharString>
      <CharString index="40">
        rmoveto
        78 18 -45 32 -66 hhcurveto
        -70 -57 -35 -75 -19 hvcurveto
        -72 -19 43 -37 68 hhcurveto
        74 55 38 71 18 hvcurveto
        -169 hmoveto
        24 7 21 15 30 hhcurveto
        -65 callgsubr
        return
      </CharString>
      <CharString index="41">
        -44 -11 93 127 82 131 88 return
      </CharString>
      <CharString index="42">
        22 24 -11 -28 -6 hvcurveto
        -24 -6 -22 -14 -30 hhcurveto
        -31 -13 16 22 4 hvcurveto
        return
      </CharString>
      <CharString index="43">
        0 -77 19 -49 -164 -87 -193 -164 -106 46 -58 90 79 65 79 0 vhcurveto
        -13 -68 rlineto
        105 hlineto
        -68 173 rmoveto
        0 -83 -92 -50 -42 -19 29 43 106 50 159 91 45 61 -14 23 callsubr
      </CharString>
      <CharString index="44">
        -69 -298 rlineto
        104 hlineto
        69 291 rlineto
        endchar
      </CharString>
      <CharString index="45">
        -239 -70 98 657 -20 hstem
        126 111 18 -3 callsubr
        366 685 rmoveto
        -111 hlineto
        -129 -555 -21 -92 -14 -9 -66 -1 rlinecurve
        -19 -98 rlineto
        166 26 25 173 39 hvcurveto
        return
      </CharString>
      <CharString index="46">
        0 13 93 14 63 vhcurveto
        return
      </CharString>
      <CharString index="47">
        -135 -588 rlineto
        -3 callgsubr
        136 588 -27 callgsubr
        endchar
      </CharString>
      <CharString index="48">
        0 67 77 75 86 34 -58 -76 -37 -13 -59 -8 -32 vhcurveto
        -57 -249 -80 callsubr
        56 241 rlineto
        6 28 12 55 28 vvcurveto
        41 -11 24 -42 -47 -73 -83 0 vhcurveto
        -30 callgsubr
        return
      </CharString>
      <CharString index="49">
        -126 -241 -46 callsubr
        99 241 rlineto
        return
      </CharString>
      <CharString index="50">
        -42 -181 rlineto
        0 -44 -10 -44 -72 -44 31 77 return
      </CharString>
      <CharString index="51">
        -25 callgsubr
        69 18 callsubr
        return
      </CharString>
      <CharString index="52">
        16 callgsubr
        hintmask 10110000
        -6 callgsubr
        hintmask 01110000
        -24 -27 -34 -13 -37 hhcurveto
        return
      </CharString>
      <CharString index="53">
        55 241 -80 callsubr
        return
      </CharString>
      <CharString index="54">
        -57 callsubr
        11 90 rlineto
        -50 callgsubr
        return
      </CharString>
      <CharString index="55">
        131 500 -96 callsubr
        return
      </CharString>
      <CharString index="56">
        -19 callgsubr
        hintmask 11100111
        -85 callgsubr
        endchar
      </CharString>
      <CharString index="57">
        0 -32 -4 -10 -13 -5 7 10 return
      </CharString>
      <CharString index="58">
        rmoveto
        hintmask 11000000
        0 232 304 320 vvcurveto
        155 -26 92 0 vhcurveto
        hintmask 10100000
        -103 hlineto
        0 16 -106 -141 vvcurveto
        -293 -220 -331 23 callsubr
      </CharString>
      <CharString index="59">
        -118 rmoveto
        87 128 rlineto
        -14 31 40 -7 46 hhcurveto
        4 callsubr
        62 -16 47 -28 34 vhcurveto
        98 143 return
      </CharString>
      <CharString index="60">
        rmoveto
        234 154 19 50 -158 161 -27 -98 84 -85 -121 -75 rlineto
        return
      </CharString>
      <CharString index="61">
        hlineto
        23 97 rlineto
        return
      </CharString>
      <CharString index="62">
        hstem
        152 500 rmoveto
        344 hlineto
        -22 -90 -291 -317 rlineto
        220 hlineto
        -24 -93 rlineto
        -343 hlineto
        19 91 290 316 rlineto
        -216 hlineto
        return
      </CharString>
      <CharString index="63">
        rmoveto
        93 hlineto
        27 116 rlineto
        -93 hlineto
        endchar
      </CharString>
      <CharString index="64">
        -11 92 122 91 109 81 -66 92 return
      </CharString>
      <CharString index="65">
        2 -11 93 337 92 return
      </CharString>
      <CharString index="66">
        rmoveto
        216 hlineto
        -290 -316 -19 -91 rlineto
        343 hlineto
        24 93 rlineto
        -220 hlineto
        291 317 22 90 rlineto
        -344 hlineto
        endchar
      </CharString>
      <CharString index="67">
        238 105 259 220 156 -90 50 -120 hvcurveto
        -217 hlineto
        return
      </CharString>
      <CharString index="68">
        rmoveto
        429 695 -101 36 -430 -695 rlineto
        return
      </CharString>
      <CharString index="69">
        rmoveto
        87 hlineto
        10 41 rlineto
        18 hlineto
        return
      </CharString>
      <CharString index="70">
        -287 -11 callsubr
        return
      </CharString>
      <CharString index="71">
        28 11 55 7 28 return
      </CharString>
      <CharString index="72">
        117 rlineto
        return
      </CharString>
      <CharString index="73">
        rmoveto
        94 hlineto
        28 118 rlineto
        -95 hlineto
        return
      </CharString>
      <CharString index="74">
        15 callgsubr
        163 708 -80 callsubr
        return
      </CharString>
      <CharString index="75">
        -35 callgsubr
        -90 hlineto
        return
      </CharString>
      <CharString index="76">
        rmoveto
        -101 hlineto
        -113 -454 rlineto
        114 hlineto
        159 700 rmoveto
        -110 hlineto
        -31 -135 rlineto
        110 hlineto
        endchar
      </CharString>
      <CharString index="77">
        -77 -334 rlineto
        return
      </CharString>
      <CharString index="78">
        rmoveto
        -203 -869 rlineto
        212 hlineto
        23 93 rlineto
        -101 hlineto
        159 683 rlineto
        102 hlineto
        22 93 rlineto
        endchar
      </CharString>
      <CharString index="79">
        -54 -194 -21 305 -20 430 -20 return
      </CharString>
      <CharString index="80">
        rlineto
        166 -46 callgsubr
        -442 hlineto
        return
      </CharString>
      <CharString index="81">
        -8 21 -21 417 83 -83 94 return
      </CharString>
      <CharString index="82">
        112 hlineto
        return
      </CharString>
      <CharString index="83">
        108 hlineto
        return
      </CharString>
      <CharString index="84">
        56 -11 97 -76 -21 97 -20 211 93 229 97 return
      </CharString>
      <CharString index="85">
        0 -74 -83 -47 return
      </CharString>
      <CharString index="86">
        71 305 rlineto
        -111 2 callsubr
        65 282 86 6 rlineto
        endchar
      </CharString>
      <CharString index="87">
        -20 20 97 199 98 194 97 return
      </CharString>
      <CharString index="88">
        rmoveto
        -54 callsubr
        return
      </CharString>
      <CharString index="89">
        171 -117 rmoveto
        97 hlineto
        return
      </CharString>
      <CharString index="90">
        169 67 236 167 return
      </CharString>
      <CharString index="91">
        -21 41 79 192 -20 return
      </CharString>
      <CharString index="92">
        27 -35 callgsubr
        return
      </CharString>
      <CharString index="93">
        -84 callsubr
        endchar
      </CharString>
      <CharString index="94">
        14 23 26 hhcurveto
        26 2 -23 -52 -13 hvcurveto
        -52 -13 -14 -24 -26 hhcurveto
        -26 -2 24 52 return
      </CharString>
      <CharString index="95">
        -65 callgsubr
        endchar
      </CharString>
      <CharString index="96">
        -188 21 -21 399 112 return
      </CharString>
      <CharString index="97">
        -146 -20 75 53 return
      </CharString>
      <CharString index="98">
        rmoveto
        110 hlineto
        return
      </CharString>
      <CharString index="99">
        -685 rlineto
        return
      </CharString>
      <CharString index="100">
        717 -79 callsubr
        return
      </CharString>
      <CharString index="101">
        -62 callsubr
        -85 callsubr
        return
      </CharString>
      <CharString index="102">
        128 0 0 117 -20 588 -20 return
      </CharString>
      <CharString index="103">
        580 rmoveto
        115 hlineto
        return
      </CharString>
      <CharString index="104">
        111 hlineto
        return
      </CharString>
      <CharString index="105">
        18 hmoveto
        -68 callgsubr
        return
      </CharString>
      <CharString index="106">
        234 0 93 407 -20 return
      </CharString>
      <CharString index="107">
        hstemhm
        92 112 139 104 return
      </CharString>
      <CharString index="108">
        65 99 -15 0 hvcurveto
        return
      </CharString>
      <CharString index="109">
        -47 73 hhcurveto
        72 55 47 97 24 hvcurveto
        97 24 -32 45 -73 hhcurveto
        -73 return
      </CharString>
      <CharString index="110">
        hstem
        84 110 return
      </CharString>
      <CharString index="111">
        rlineto
        99 hlineto
        return
      </CharString>
      <CharString index="112">
        rmoveto
        -82 callgsubr
        return
      </CharString>
      <CharString index="113">
        rlineto
        -107 hlineto
        return
      </CharString>
      <CharString index="114">
        113 43 172 83 75 vhcurveto
        -62 callsubr
        return
      </CharString>
      <CharString index="115">
        -40 callsubr
        endchar
      </CharString>
      <CharString index="116">
        -107 -11 94 334 94 return
      </CharString>
      <CharString index="117">
        79 36 70 70 77 hstem
        return
      </CharString>
      <CharString index="118">
        79 53 72 49 79 hstem
        return
      </CharString>
      <CharString index="119">
        28 -35 callgsubr
        -99 hlineto
        return
      </CharString>
      <CharString index="120">
        28 -32 callgsubr
        return
      </CharString>
      <CharString index="121">
        490 484 rmoveto
        return
      </CharString>
      <CharString index="122">
        109 hlineto
        return
      </CharString>
      <CharString index="123">
        rmoveto
        -77 callsubr
        return
      </CharString>
      <CharString index="124">
        -78 callgsubr
        endchar
      </CharString>
      <CharString index="125">
        194 rlineto
        return
      </CharString>
      <CharString index="126">
        38 0 727 -17 -21 38 0 21 -21 39 -20 return
      </CharString>
      <CharString index="127">
        -21 235 -20 97 -20 hstemhm
        105 102 50 112 return
      </CharString>
      <CharString index="128">
        rmoveto
        251 hlineto
        24 98 rlineto
        -250 hlineto
        endchar
      </CharString>
      <CharString index="129">
        13 callsubr
        -98 hlineto
        return
      </CharString>
      <CharString index="130">
        481 101 rmoveto
        return
      </CharString>
      <CharString index="131">
        hlineto
        -42 -171 rlineto
        95 hlineto
        43 171 rlineto
        return
      </CharString>
      <CharString index="132">
        -190 -11 92 326 93 137 -20 hstem
        return
      </CharString>
      <CharString index="133">
        hlineto
        43 172 rlineto
        -95 hlineto
        -43 -172 rlineto
        return
      </CharString>
      <CharString index="134">
        759 rmoveto
        -65 callsubr
        return
      </CharString>
      <CharString index="135">
        -20 callsubr
        endchar
      </CharString>
      <CharString index="136">
        124 92 -103 -124 -125 -91 -101 return
      </CharString>
</ttFont>
